<svg width="100" height="100" viewBox="0 0 100 100" fill="none" xmlns="http://www.w3.org/2000/svg">
<path d="M23.7917 27.9583C23.4054 28.3438 23.099 28.8016 22.8899 29.3057C22.6808 29.8097 22.5732 30.3501 22.5732 30.8958C22.5732 31.4415 22.6808 31.9818 22.8899 32.4859C23.099 32.99 23.4054 33.4478 23.7917 33.8333L39.9167 50L23.75 66.2083C23.3643 66.5941 23.0583 67.052 22.8495 67.556C22.6407 68.06 22.5333 68.6003 22.5333 69.1458C22.5333 69.6913 22.6407 70.2315 22.8495 70.7356C23.0583 71.2396 23.3643 71.6975 23.75 72.0833C24.1358 72.4691 24.5937 72.7751 25.0978 72.9838C25.6018 73.1926 26.142 73.3 26.6875 73.3C27.2331 73.3 27.7733 73.1926 28.2773 72.9838C28.7813 72.7751 29.2393 72.4691 29.625 72.0833L48.75 52.9583C50.375 51.3333 50.375 48.7083 48.75 47.0833L29.625 27.9583C29.2437 27.5723 28.7895 27.2658 28.2888 27.0567C27.7882 26.8475 27.251 26.7398 26.7083 26.7398C26.1657 26.7398 25.6285 26.8475 25.1279 27.0567C24.6272 27.2658 24.173 27.5723 23.7917 27.9583Z" fill="white" fill-opacity="0.5"/>
<path d="M51.25 27.9583C50.8637 28.3438 50.5573 28.8017 50.3482 29.3057C50.1391 29.8098 50.0315 30.3501 50.0315 30.8958C50.0315 31.4415 50.1391 31.9819 50.3482 32.4859C50.5573 32.99 50.8637 33.4479 51.25 33.8333L67.375 50L51.2083 66.1667C50.4293 66.9457 49.9916 68.0024 49.9916 69.1042C49.9916 70.2059 50.4293 71.2626 51.2083 72.0417C51.9874 72.8207 53.0441 73.2584 54.1458 73.2584C55.2476 73.2584 56.3043 72.8207 57.0833 72.0417L76.2083 52.9167C77.8333 51.2917 77.8333 48.6667 76.2083 47.0417L57.0833 27.9167C56.3027 27.1517 55.251 26.7268 54.1581 26.7346C53.0651 26.7424 52.0197 27.1823 51.25 27.9583Z" fill="white" fill-opacity="0.5"/>
</svg>
