<?xml version="1.0" encoding="utf-8"?>
<!-- Generator: Adobe Illustrator 25.0.1, SVG Export Plug-In . SVG Version: 6.00 Build 0)  -->
<svg version="1.1" id="Layer_1" xmlns="http://www.w3.org/2000/svg" xmlns:xlink="http://www.w3.org/1999/xlink" x="0px" y="0px"
	 viewBox="0 0 675.3 675.8" style="enable-background:new 0 0 675.3 675.8;" xml:space="preserve">
<style type="text/css">
	.st0{display:none;}
	.st1{display:inline;stroke:#FFFFFF;stroke-miterlimit:10;}
	.st2{fill:#FFFFFF;}
</style>
<g id="Layer_1_1_" class="st0">
	<rect x="-558.8" y="-311.3" class="st1" width="1742" height="1310"/>
</g>
<g id="Layer_2_1_">
	<path class="st2" d="M639,184.1c-4.3-13.3-8.4-26.8-10.1-40.7c-1.5-12.2-1.1-25.5,7.6-35.2c1.5-1.7,1.3-7.2-0.2-9.3
		c1.7-1.2,2.2-4.7,2.1-6.2c-2.2-47.1-51.1-72.1-90.7-84.6c-10.4-3.3-21.1-5.7-31.8-8.1c-1.7-0.4-2.7,1.9-2.9,4.5
		c-0.2,0-0.4,0.1-0.7,0.2c-11.2,6-19.4,15.1-29.6,22.5c-11.4,8.3-24.1,6-37,2.3c-15.5-4.5-30.4-10.9-45.8-16
		c-16.2-5.3-32.3-7.9-49.3-8.5c-49.8-1.6-99.3,4.6-145.3,21.9c-0.1-1.5-0.5-3.1-1.1-4.2C192.6,0,162.3,8.9,143.8,16.5
		c-9.9,4.1-19.4,9-28.6,14.5c-12.2,7.3-25,16.1-30.8,29.7C81.1,68.5,81,77.4,83,85.5c0.9,3.5,2.2,6.9,2.9,10.5
		c0.7,3.4,0.1,4.5-2.5,7c-1.7,1.6-1.8,6.1-1,9.4c-19,21.5-35.2,45.5-48,71.2C8.2,236.5-3.3,295.9,0.8,354.8
		c2,29.5,12.2,57.5,24.4,84.2c1.8,4,3.7,8,5.7,11.9c-0.7,2-0.6,4.6-0.5,6.1c0.1,1.1-0.1,2.4-0.5,3.7c-0.8,0.5-1.3,1.5-1.6,2.6
		c-0.5,1.8-0.9,3.6-1.4,5.4c-0.2,0.6-0.5,1.1-0.7,1.6c-1.8,4.6-3.7,9.3-5,14.1c-0.2,0.4-0.4,0.8-0.6,1.2c-0.3,0.6-0.5,1.9-0.5,3.4
		c-2.5,13.6,2.1,27.3,8.8,39.1c6.4,11.2,13.9,22.2,21.6,32.5c6.6,8.8,14.8,14.7,25.6,17.5c7.8,1.9,15.3,1.5,23.1,0.5
		c8.2-1.1,15.5-1.5,22.8,2.9c0.4,0.2,0.7,0.3,1,0.3c6,5.8,12.8,10.8,19.2,15.9c9.9,7.8,20.2,15.1,30.8,21.8
		c36,22.6,77.4,37.4,118.7,46.6c41.6,9.3,85.7,12.7,128,6.6c21.8-3.2,42.7-10.3,64.5-13.5c21.7-3.2,43.6-6,63.8-15
		c11.6-5.1,21.9-12.3,32.4-19.4c10-6.7,20-14,27.9-23.1c7.9-9,12.1-19.5,12.1-31.5c0-11.2-3.1-20.9,3.1-31.1
		c0.8-1.2,0.9-3.5,0.7-5.6c35-46.5,50.2-104.3,50.7-162.1C675.9,306.9,658.8,245,639,184.1z M88,70.2c0.7-3.7,2.8-7.2,5.2-10.1
		c4.4-5.5,10-9.8,15.9-13.6c18-11.8,39.5-21.8,61-23.9c9.7-1,21.3-0.8,27.5,7.5c-15.9,6.5-31.3,14.3-46.2,23.7
		C130.1,67.1,110.6,83,93.1,101c0.3-7.3-2.4-15.1-4.2-22.4C88.2,75.6,87.4,73.2,88,70.2z M88.1,566.2c-11,0.5-22.4-4.4-29.8-12.5
		c-7.8-8.5-13.9-19-20.2-28.6c-6.2-9.5-13.2-20.8-11.6-32.5c6.5-8.1,10.1-19,10.8-29.5c10.3,18.7,22.6,36.5,36.4,52.5
		c2.8,3.3,5.7,6.4,8.8,9.5c0.2,1.5,0.6,2.7,1.3,3.4c11.1,9.8,17.7,23.3,25.7,35.8C102.5,564.2,95.4,565.8,88.1,566.2z M661.4,437.5
		c-8.2,33.7-23.1,64.3-44.1,91.8c-1.3,1.7-1.7,4.1-1.4,6.3c-2.8,7.2-3.4,14.8-2.9,22.7c0.7,9.8,2,18.3-4.1,26.9
		c-6.2,8.7-14.8,15.5-23.3,21.6c-8.7,6.3-17.5,12.8-26.7,18.4c-19.6,11.9-40.8,15.4-63.1,18.8c-11.2,1.7-22.4,3.3-33.5,5.9
		c-10.3,2.3-20.3,5.7-30.7,7.8c-41.2,8.2-83.6,6.4-124.8-1c-41-7.4-81.5-20.2-118.2-40.2c-11.5-6.3-22.5-13.3-33.3-20.8
		c-10.2-7.1-20.5-14.5-29.4-23.3c-0.3-1.8-1-3.4-2.1-4c-1-0.6-2-1.1-3-1.5c-11.3-13.8-17.9-31.3-30.1-44.3c0-1.9-0.5-3.7-1.4-4.6
		c-20-19.2-35.8-42.9-49.2-67c-14.2-25.6-26.5-53.1-31.6-82.1c-4.8-27.6-3.4-57,0.8-84.5c4.3-28.2,12.4-56,24.1-82.1
		c23.7-52.7,61.6-98.4,109.4-131c26.8-18.2,56.3-32.3,87.5-41.3c33.5-9.6,68.4-13,103.1-13c17.4,0,34.8,0.4,51.8,4.6
		c15.6,3.9,30.4,10.4,45.5,15.7c12.7,4.5,28,10.9,41.7,8.1c10.3-2.1,17.2-9.1,24.8-15.7c5.2-4.4,10.7-8.3,16.7-11.5
		c1.6-0.8,2.3-3.3,2.4-5.9c18.2,4.5,36.4,11,53.6,18.5c18.5,8.1,37.2,18.7,50.2,34.6c6.3,7.8,11,17.2,11.4,27.4
		c0.1,1.6,0.4,4.9,1.9,6.1l0,0c-16.8,17.4-12.2,46.1-7.1,67.3c2.8,11.6,6.6,23,10.3,34.4c4.8,14.5,9,29.2,13.2,43.8
		C667.8,306.8,676.9,373.5,661.4,437.5z"/>
	<path class="st2" d="M144.6,269.8c-5-11-11.1-22.5-19.8-31c-4.3-4.1-6.3,8.4-3.3,11.3c14.8,14.4,22.5,36.8,27.6,56.3
		c5.2,20,9.5,45.3-1.1,64.3c-5.8,10.3-16.3,16.2-27.5,18.7c-2.6,0.6-2.9,8,0,7.9c26.2-0.4,37.6-24.2,39.8-47.3
		C162.7,322.9,155.7,294.4,144.6,269.8z"/>
	<path class="st2" d="M136.6,299.9c-1.7-16.1-13.2-34.5-27.6-42.1c-15.9-8.4-26.9,5.5-30.3,20.1c-3.3,14.1-2.2,28.8-0.4,43.1
		c1.9,14.9,4.8,31.7,12.8,44.6c3,4.8,7.3,10.5,13.2,11.4c7,1.2,13-3.8,17.5-8.5c2.4-2.5,0.7-13.1-2.8-9.5c-3.3,3.5-7.9,7.6-13.1,7.1
		c-3.9-0.3-7.5-3.2-9.4-6.5c-6.5-10.6-9.2-23.4-11.2-35.5c-1.1-6.5-1.9-13-2.4-19.5c-0.2-2.1-0.3-4.4-0.3-6.6c0-1.3-0.1-2.5-0.1-3.8
		c0-0.5,0.1-2.9,0-2.4c0.9-11.9,5.9-27.7,20.8-23c15.5,4.9,23.1,21.3,28.3,35.3C133.9,310.5,137,303.4,136.6,299.9z"/>
	<path class="st2" d="M178.1,211.8c-2.4-0.8-3.3,2.3-3.6,4.1c-1.8,9.9-6.2,19.1-14.2,25.5c-2.1,1.7-2.5,4.9-2.1,7.5
		c0.2,1.1,1.6,5.9,3.7,4.2c10.7-8.5,16.3-20.8,18.2-34.1C180.4,217.1,180.3,212.5,178.1,211.8z"/>
	<path class="st2" d="M148,217.7c-0.5-1.7-2.9-5.3-4.8-2.5c-1,1.4-1.9,2.9-2.9,4.3c-0.2,0.2-0.3,0.5-0.5,0.8
		c-0.1,0.1-0.2,0.2-0.2,0.4c-0.8,1.2-1.1,3-1.1,4.7c0,0.9,0.1,1.8,0.3,2.7c-0.9,0.6-1.2,2.7-0.9,4.2c-0.4,1.8,0,4.4,1.4,4.4
		c1.4,0,1.8-2.6,1.4-4.4c0-0.1,0-0.2,0.1-0.4c0.9,0.8,2,1.1,3-0.3c1-1.4,1.9-2.9,2.9-4.3C148.5,224.5,149,220.8,148,217.7z"/>
	<path class="st2" d="M185.8,285.2c-0.5-2.3-1.8-5.5-4-4.1c-0.2,0.1-0.3,0.2-0.5,0.3c-2.1,0-4.3,1-6.2,1.8c-1.1,0.4-1.8,2.3-2.1,3.2
		c-0.4,1.3-0.5,2.7-0.4,4c-0.2-0.2-0.4-0.3-0.7-0.3c-2.1,0-2.1,6,0,6c0.8,0,1.2-0.8,1.5-1.8c0.5,1.3,1.3,2.3,2.7,2.5
		c0.8,0.1,1.6,0.1,2.4-0.1c0.2,0.2,0.4,0.3,0.6,0.4c5,1.7,7.3-4.2,7.3-8.2C186.3,287.9,186.2,286.5,185.8,285.2z"/>
	<path class="st2" d="M216.7,313.4c-0.9-0.7-3.1-0.7-4.2-0.8c-0.6-0.1-1.1,0.2-1.5,0.7c-2.8-0.1-5.6-0.2-8.4-0.3
		c-4.8-0.2-9.7-0.6-14.5-0.5c-3.5,0.1-3.4,10.1,0,10c5.5-0.2,11.2,0.3,16.7,0.5c2.8,0.1,11.4,2,13-1.4
		C219,319.3,219,315.2,216.7,313.4z"/>
	<g>
		<path class="st2" d="M188.1,356.8c0.3-2,0.2-4.2-0.8-5.8c0,0,0,0,0,0c0-0.1-0.1-0.1-0.1-0.2c-0.2-0.5-0.5-1-0.9-1.4c0,0,0,0,0,0
			c0,0,0,0,0,0c-0.8-1.2-1.7-2.5-3.3-2.5c-0.6,0-1,0.3-1.4,0.8c-0.2,0-0.4,0.1-0.6,0.2c-1-0.4-1.7,0.2-2.3,0.9
			c-0.2-1-0.7-1.7-1.4-1.7c-1,0-1.5,1.4-1.6,2.9c-1.7,1.7-1.8,5.1-1.5,7.2c0.2,1.4,1.5,6,3.9,4.4c0.1-0.1,0.2-0.1,0.3-0.2
			c0.1,0,0.2,0,0.3,0c0.4,0,0.8,0.1,1.2,0.1c0.7,0.1,1.5,0.1,2.2-0.2c0.5-0.3,1-0.7,1.3-1.2c0.1,0.1,0.2,0.2,0.3,0.4
			c1.6,1.8,3.2,0.1,3.9-1.5c0.2-0.5,0.3-1,0.5-1.6C188,357.2,188,357.1,188.1,356.8z"/>
		<path class="st2" d="M186.4,349.5C186.6,349.8,186.9,350.2,186.4,349.5L186.4,349.5z"/>
	</g>
	<path class="st2" d="M196.2,396.6c-3.9-6.1-8.9-11.7-15.3-15.3c-4.4-2.5-6,11.1-1.9,13.5c5.3,3,9.6,7.6,12.9,12.7
		c1.6,2.5,3.7,10.4,7,10.8c1.5,0.2,2.2-1.9,2.5-2.9C203.9,409,199.5,401.7,196.2,396.6z"/>
	<path class="st2" d="M128.3,415.6c-1.2-2.7-3.6-2.2-4.9,0c-1.6,2.8-1.2,7,0,9.9c2.2,5.1,1.7,10.8,0,16c-1.5,4.5-4.9,8-5.7,12.7
		c-0.4,2.3,0,5.4,2,6.9l0.5,0.3c0.6,0.3,1.2,0.3,1.7,0c5.8-2.8,8-13.7,9.1-19.3C132.6,433.2,131.9,424,128.3,415.6z"/>
	<path class="st2" d="M150.2,422.9c-0.7-3.5-1.7-6.8-3-10c-1.1-2.7-3.8-2.3-4.9,0c-1.6,3-1.2,6.8,0,9.9c0.4,1,0.7,2,0.9,3.1
		c0,0.8,0.1,1.5,0.4,2.1c0.4,3.1,0.4,6.2,1.2,9.3c0.3,1.2,1.2,3.1,2.7,3.1c1.6,0,2.3-1.9,2.7-3.1c1-2.6,1-5.7,0.8-8.7
		C152.2,427.3,152,422.9,150.2,422.9z"/>
	<path class="st2" d="M310,86.5c-14.4-3.8-28.5-8-42.6-12.7c-4.3-1.4-4.7,9.2-1.5,10.9c13.8,7.1,29.2,10.5,44.1,14.4
		C313.6,100,314.5,87.7,310,86.5z"/>
	<path class="st2" d="M604.5,76.7c-14.4,5.1-30.6-3.9-41.5-12.8c-8.4-6.9-17.4-14.8-23.6-24.2c2.7,0.8,5.2,2.2,8.3,3.4
		c3.5,1.3,3.3-6.9,1.8-8.5c-4.8-4.8-10.4-7-17.2-6.3c-3.1,0.3-3.1,6.1-2.3,8.2c5.4,15.5,17.5,29.5,30.9,38.7
		c12.7,8.8,29.4,17.6,45.1,12C609.3,86,608.6,75.2,604.5,76.7z"/>
	<path class="st2" d="M514.1,62.4c-4.1,3.9-8.7,7.1-13.7,9.8c-4.9,2.6-10.2,4.3-15.1,6.9c-2.8,1.5-3.3,11.4,0.8,11.5
		c11.7,0.2,23.5-8.4,31.6-16C520.8,71.4,518.7,58,514.1,62.4z"/>
	<path class="st2" d="M543.2,86.6c-0.7-2.2-2.6-4.8-4.8-2.5c-2.8,2.8-5.3,5.9-8,8.8c-1.3,1.4-2.6,2.7-4,3.9c-2.1,1.8-3,3.1-4,5.8
		c-0.8,2.1-0.6,5.5,0.7,7.3c0.3,0.4,0.6,0.7,1,0.9c0,0,0,0.1,0,0.1c3.6,1.8,7.3-3.2,9.6-5.6c2.9-3,5.5-6.2,8.4-9.1
		C544.2,93.9,544.1,89.3,543.2,86.6z"/>
	<path class="st2" d="M575.2,101.5c-6.2-0.1-11.3,0.7-16.9,3.6c-0.3,0.2-0.7,0.4-1,0.5c-0.1-1-0.2-2-0.5-2.8c-0.6-2-2.7-5-4.8-2.5
		c-4.3,5.1-8.3,10.5-11.1,16.6c-1.1,2.3-1.3,5.5-0.5,7.9c0.4,1.2,1.9,4.4,3.7,3c6.8-5.2,14.8-12.6,23.7-15c-2.1,4.1-3.8,8.4-5,12.9
		c-2.1,7.9-3.5,17.5-0.2,25.3c1.7,4,4.5-0.2,4.8-2.5c0.7-6.7,0-12.8,1.9-19.4c1.9-6.4,4.8-12.5,7.8-18.5
		C578,108.8,578.7,101.6,575.2,101.5z"/>
	<path class="st2" d="M601.3,117.7c0.1-0.6,0-1.3-0.1-1.9c0.4-1.8,0-4.4-1.4-4.4c-0.4,0-0.7,0.2-0.9,0.5c-0.4-0.5-0.9-0.8-1.6-0.8
		l-0.3,0c-1.9,0-2.8,3-2.9,4.4c-0.2,2.8,0.4,5.3,0.6,8.1c0.2,2.9-0.1,6.1-0.7,8.9c-0.6,2.9-1.1,7.2,1.2,9.6c2.1,2.1,4.3-0.2,4.8-2.5
		C601.5,133.2,602.9,124.7,601.3,117.7z"/>
	<path class="st2" d="M589,570.6c-14.1,1.3-27.9,13.3-37.5,22.9c-4.8,4.8-9.7,10.4-12,17c-1.2,3.3-3.1,16.9,3.4,16.3
		c3.4-0.3,3.2-6.5,2.6-8.8c0.6-1,1.5-3,2.3-4.1c3.4-4.8,7.7-9,12.1-12.9c7.7-6.8,18.4-15.4,29.1-16.4
		C594,584.1,593.6,570.2,589,570.6z"/>
	<path class="st2" d="M581.2,544.3c-2.7-7.6-5.1-15.3-7.8-22.9c-1.3-3.5-3.8-14.4-8.7-14.7c-3.4-0.2-3.1,7-2.5,8.8
		c1.6,5.2,4.3,10.2,6.1,15.4c2.4,6.8,4.5,13.6,7,20.4c0.8,2.2,2.5,4.7,4.8,2.5C582,551.8,582,546.8,581.2,544.3z"/>
	<path class="st2" d="M547.4,549.9c-1.9-1.7-3.6-3.6-5.1-5.6c-1.1-1.5-2.6-4.7-4.8-4.7c-2.3,0-2.7,4-2.8,5.5
		c-0.1,6.7,4.4,12.6,9.1,16.9c2.2,2.1,4.1-0.2,4.8-2.5C549.4,556.9,549.6,552,547.4,549.9z"/>
	<path class="st2" d="M522.2,570.9c-4.8-2.9-15.4-8.2-20.6-4.1c-2.9,2.3-2.9,8.6,0,10.9c2.6,2.1,6.3,1.7,9.4,2.5
		c3.4,0.9,6.5,2.4,9.4,4.2C524.6,586.9,526.3,573.3,522.2,570.9z"/>
	<path class="st2" d="M505,608.5c-5.8-1.1-11.7-2.3-17.6-3.3c-5.4-0.9-12.2-2.8-17.7-1.5c-3.9,0.9-4.7,11-0.8,12.5
		c5.5,2,11.8,1.8,17.6,2.8c6.2,1,12.3,2.3,18.5,3.5C509.3,623.3,510.1,609.5,505,608.5z"/>
	<path class="st2" d="M415.1,535.4c-1.1-2-3.2-2.4-4.3,0c-7.1,15.5-12.6,31.8-17.4,48.2c-2.3,7.8-4.3,15.7-6.2,23.6
		c-1.7,7.1-3.9,14.5-3.9,21.9c0,2.2,2.5,8.1,4.5,3.7c2.7-6,3.5-12.8,5-19.2c1.8-7.7,3.8-15.3,6-22.9c4.5-15.9,9.6-31.7,16.5-46.7
		C416.2,541.5,416.5,537.9,415.1,535.4z"/>
	<path class="st2" d="M363,575.1c-2-1.7-3.6,0-4.2,2.2c-2.6,9.6-4.4,19.3-5.3,29.2c-0.9,9.5-2.2,20.2-0.4,29.6c1,5.1,5.1,5.5,5.8,0
		c1.1-8.6,0-17.6,0.7-26.3c0.7-8.9,2.1-17.8,4.4-26.4C364.7,581.1,365,576.8,363,575.1z"/>
	<path class="st2" d="M314.5,623c-3.1-3.4-6-7-8.3-11c-2-3.3-3.1-7.8-6.3-10.2c-2.5-2-3.7,4.5-3.6,5.5c0.6,10.4,7.8,20.2,14.7,27.7
		c2.1,2.3,4.1-0.4,4.8-2.5C316.6,629.9,316.6,625.3,314.5,623z"/>
	<path class="st2" d="M333.2,468.1c-12.9,12.7-25.7,25.4-39.2,37.4c-16.5,14.7-34.3,29.8-54.4,39.2c-5.2,2.4-11.8,5.2-18,5.2
		c30.2-42,60-84.8,87.4-128.7c1.6-2.6-0.5-11.3-3.4-6.8c-29,46.1-62,89.4-92.2,134.7c-1.2,1.8-2.4,8.1,0.6,9.1
		c16.5,5.7,35.7-7.8,48.5-16.6c19.4-13.4,37.1-29.4,53.9-45.9c6.6-6.4,13-12.9,19.1-19.8C337.3,473.9,336.3,465.1,333.2,468.1z"/>
	<path class="st2" d="M347.2,507.6c-7.7,4.4-14.5,10.6-21.4,16.1c-7.1,5.6-14.3,11-22,15.8c-3.4,2.1-2,13.5,1.6,11.3
		c15.4-9.6,30.5-21.4,43.9-33.7C351.1,515.3,350.6,505.6,347.2,507.6z"/>
	<path class="st2" d="M604,361.1c-17.2-18.3-36.4-35-56.6-50.1c-21.9-16.4-45.5-31.3-71-41.5c-12.2-4.8-26-9.2-39.2-8.9
		c-4,0.1-3.7,10.2,0,11c11.6,2.5,22.9,5.3,34.1,9.5c12.1,4.6,23.8,10.3,35.1,16.6c23.4,13.2,45.5,29.1,65.9,46.7
		c9.9,8.6,19.5,17.6,28.6,27.1C604.7,375.5,606.7,363.9,604,361.1z"/>
	<path class="st2" d="M559.9,263.6c-16.7-8.6-33.3-17.4-50.6-24.6c-16.8-7-34.6-13.2-53-13.4c-3.7,0-3.6,10,0,10.6
		c18.2,3,36,7.8,53.2,14.7c16.8,6.7,32.9,14.9,49.1,23.1C562,275.9,563.1,265.3,559.9,263.6z"/>
	<path class="st2" d="M544.2,399.8c-23.4-23.2-49-44.2-76.6-62.3c-13.8-9-28-17.2-42.4-25.3c-13-7.4-27-15.4-42.5-13
		c-2.1,0.3-2.6,3.5-2.6,5.2c0.3,18.8,7.5,36.1,15.1,53c8.3,18.6,15.8,37,15.6,57.8c0,3.6,3.6,5.8,4,1.1c1.6-20.2-4.5-39.2-12.2-57.5
		c-6.7-15.9-15.2-31.9-16.9-49.3c14.1-0.4,27.5,8.2,39.3,14.9c13.8,7.9,27.7,15.7,41.1,24.4c27.1,17.6,52.5,37.5,75.5,60.2
		C545,412.1,546.6,402.1,544.2,399.8z"/>
	<path class="st2" d="M392.5,229.5c-3.9-5.2-11.7-10.4-18.5-9.5c-5.6,0.7-9.6,5.1-11.9,10c-4.8,10.1-5.8,28.3,4.1,35.9
		c5.5,4.2,12.6,1.7,17.8-1.8c3.6-2.3,2.1-14.7-1.7-12.2c-4.3,2.8-10.2,5.3-14.3,1.4c-1-0.9-0.9-1-1.5-2.2c-0.6-1.2-0.2-0.3-0.5-1.1
		c-0.1-0.2-0.3-1.2-0.4-1.5c-0.1-0.4-0.2-0.8-0.2-1.3c0-0.4-0.1-0.7-0.1-0.8c0,0.1,0,0.1,0-0.3c-0.1-2.3-0.2-0.7,0.2-2.9
		c0.2-1.5,0.7-3.6,2-5.8c1-1.6,2.7-3.5,4.8-4.4c6.9-3.1,12.5,2.4,18.3,5.2C394.3,240,393.6,231,392.5,229.5z"/>
	<path class="st2" d="M413,112.9c-0.7-5-4.9-5.1-5.5,0c-1.3,10.5-1.5,21.1-3.3,31.6c-1.8,10.6-4.6,21.1-7.8,31.4
		c-0.8,2.7-0.9,7.4,1.2,9.6c2.2,2.2,4.1-0.3,4.8-2.5c3.5-11.4,6.4-23,8.5-34.7C412.9,136.9,414.6,124.5,413,112.9z"/>
	<path class="st2" d="M356.3,189.5c-1.6-5.1-3.4-10.2-5.4-15.2c-1.8-4.6-3.6-10-6.9-13.7c-3.8-4.4-4.8,6.6-4.2,8.5
		c2.7,9.4,7.6,18.1,10.5,27.5c0.7,2.3,2.5,4.6,4.8,2.5C357.3,197,357.1,192.1,356.3,189.5z"/>
	<path class="st2" d="M319.9,224.4c-18.3,6.2-39.8,1-57.2-5.4c-18.1-6.7-34.7-16.2-49.5-28.6c-1.7-1.4-3,2.3-3.2,3.2
		c-0.5,2.2-0.3,5,1.1,6.9c12.3,15.9,33.2,26.1,51.8,32.5c18.4,6.4,39.8,11,58.8,4.5C325.9,236.1,325,222.6,319.9,224.4z"/>
	<path class="st2" d="M314.6,276.3c-8.4,3-16.4,6.9-24.3,10.8c-3.7,1.8-7.4,3.6-11.2,5.3c-4.3,1.9-9.3,3.2-13.2,5.8
		c-2.5,1.8-3.7,11.7,0.8,11.8c4.3,0,8.6-2.4,12.5-4.1c4.1-1.8,8-3.9,12-5.9c8.2-4.2,16.4-8.4,25.1-11.5
		C320.1,287.1,319.2,274.7,314.6,276.3z"/>
	<path class="st2" d="M334.4,308.9c-0.5-1.6-2.6-4.8-4.4-2.3c-6.6,9.5-12.4,19.6-14.7,31.1c-0.3,1.7-0.2,5.2,1.3,6.5
		c1.3,1.1,2.8,0.8,3.5-0.9c3.6-9.1,7.5-17.6,13.1-25.7C335,315.2,335.3,311.8,334.4,308.9z"/>
	<path class="st2" d="M135.9,97c-1.1-1.8-2.8-2.2-3.9,0c-8.4,17.2-18.1,33.6-27.5,50.2c-4.6,8.2-9.1,16.4-13.3,24.8
		c-4.2,8.4-8.9,17.3-11,26.5c-0.5,2.2,0.9,11.4,4,6.2c4.8-8,7.8-17.4,12-25.8c4-8.2,8.4-16.3,12.8-24.3
		c9.1-16.5,18.6-32.9,26.8-49.9C136.9,102.7,137.2,99.1,135.9,97z"/>
	<path class="st2" d="M164,83.9c-0.6-1.8-2.7-5-4.6-2.4c-7.7,9.8-14.2,23-14.8,35.6c-0.1,2.6,2.6,8.8,5,4.1
		c2.3-4.4,3.2-9.6,5.1-14.2c2.1-5,4.7-9.6,8-13.9C164.7,90.8,164.9,86.8,164,83.9z"/>
</g>
</svg>
