<?xml version="1.0" encoding="utf-8"?>
<!-- Generator: Adobe Illustrator 25.0.1, SVG Export Plug-In . SVG Version: 6.00 Build 0)  -->
<svg version="1.1" id="Layer_1" xmlns="http://www.w3.org/2000/svg" xmlns:xlink="http://www.w3.org/1999/xlink" x="0px" y="0px"
	 viewBox="0 0 1190.5 672.3" style="enable-background:new 0 0 1190.5 672.3;" xml:space="preserve">
<style type="text/css">
	.st0{display:none;}
	.st1{display:inline;stroke:#FFFFFF;stroke-miterlimit:10;}
	.st2{display:inline;fill:#FFFFFF;}
	.st3{display:inline;}
	.st4{fill:#FFFFFF;}
</style>
<g id="Layer_1_1_" class="st0">
	<rect x="-302.6" y="-228.1" class="st1" width="1742" height="1310"/>
</g>
<g id="Layer_2_1_" class="st0">
	<path class="st2" d="M895.1,267.4c-4.3-13.3-8.4-26.8-10.1-40.7c-1.5-12.2-1.1-25.5,7.6-35.2c1.5-1.7,1.3-7.2-0.2-9.3
		c1.7-1.2,2.2-4.7,2.1-6.2c-2.2-47.1-51.1-72.1-90.7-84.6c-10.4-3.3-21.1-5.7-31.8-8.1c-1.7-0.4-2.7,1.9-2.9,4.5
		c-0.2,0-0.4,0.1-0.7,0.2c-11.2,6-19.4,15.1-29.6,22.5c-11.4,8.3-24.1,6-37,2.3c-15.5-4.5-30.4-10.9-45.8-16
		c-16.2-5.3-32.3-7.9-49.3-8.5c-49.8-1.6-99.3,4.6-145.3,21.9c-0.1-1.5-0.5-3.1-1.1-4.2c-11.6-22.8-41.9-13.9-60.4-6.3
		c-9.9,4.1-19.4,9-28.6,14.5c-12.2,7.3-25,16.1-30.8,29.7c-3.3,7.8-3.4,16.6-1.4,24.8c0.9,3.5,2.2,6.9,2.9,10.5
		c0.7,3.4,0.1,4.5-2.5,7c-1.7,1.6-1.8,6.1-1,9.4c-19,21.5-35.2,45.5-48,71.2c-26.2,52.9-37.7,112.4-33.6,171.3
		c2,29.5,12.2,57.5,24.4,84.2c1.8,4,3.7,8,5.7,11.9c-0.7,2-0.6,4.6-0.5,6.1c0.1,1.1-0.1,2.4-0.5,3.7c-0.8,0.5-1.3,1.5-1.6,2.6
		c-0.5,1.8-0.9,3.6-1.4,5.4c-0.2,0.6-0.5,1.1-0.7,1.6c-1.8,4.6-3.7,9.3-5,14.1c-0.2,0.4-0.4,0.8-0.6,1.2c-0.3,0.6-0.5,1.9-0.5,3.4
		c-2.5,13.6,2.1,27.3,8.8,39.1c6.4,11.2,13.9,22.2,21.6,32.5c6.6,8.8,14.8,14.7,25.6,17.5c7.8,1.9,15.3,1.5,23.1,0.5
		c8.2-1.1,15.5-1.5,22.8,2.9c0.4,0.2,0.7,0.3,1,0.3c6,5.8,12.8,10.8,19.2,15.9c9.9,7.8,20.2,15.1,30.8,21.8
		c36,22.6,77.4,37.4,118.7,46.6c41.6,9.3,85.7,12.7,128,6.6c21.8-3.2,42.7-10.3,64.5-13.5c21.7-3.2,43.6-6,63.8-15
		c11.6-5.1,21.9-12.3,32.4-19.4c10-6.7,20-14,27.9-23.1c7.9-9,12.1-19.5,12.1-31.5c0-11.2-3.1-20.9,3.1-31.1
		c0.8-1.2,0.9-3.5,0.7-5.6c35-46.5,50.2-104.3,50.7-162.1C932.1,390.1,914.9,328.3,895.1,267.4z M344.2,153.4
		c0.7-3.7,2.8-7.2,5.2-10.1c4.4-5.5,10-9.8,15.9-13.6c18-11.8,39.5-21.8,61-23.9c9.7-1,21.3-0.8,27.5,7.5
		c-15.9,6.5-31.3,14.3-46.2,23.7c-21.2,13.4-40.8,29.3-58.3,47.2c0.3-7.3-2.4-15.1-4.2-22.4C344.4,158.8,343.6,156.4,344.2,153.4z
		 M344.2,649.4c-11,0.5-22.4-4.4-29.8-12.5c-7.8-8.5-13.9-19-20.2-28.6c-6.2-9.5-13.2-20.8-11.6-32.5c6.5-8.1,10.1-19,10.8-29.5
		c10.3,18.7,22.6,36.5,36.4,52.5c2.8,3.3,5.7,6.4,8.8,9.5c0.2,1.5,0.6,2.7,1.3,3.4c11.1,9.8,17.7,23.3,25.7,35.8
		C358.7,647.4,351.6,649.1,344.2,649.4z M917.6,520.7c-8.2,33.7-23.1,64.3-44.1,91.8c-1.3,1.7-1.7,4.1-1.4,6.3
		c-2.8,7.2-3.4,14.8-2.9,22.7c0.7,9.8,2,18.3-4.1,26.9c-6.2,8.7-14.8,15.5-23.3,21.6c-8.7,6.3-17.5,12.8-26.7,18.4
		c-19.6,11.9-40.8,15.4-63.1,18.8c-11.2,1.7-22.4,3.3-33.5,5.9c-10.3,2.3-20.3,5.7-30.7,7.8c-41.2,8.2-83.6,6.4-124.8-1
		c-41-7.4-81.5-20.2-118.2-40.2c-11.5-6.3-22.5-13.3-33.3-20.8c-10.2-7.1-20.5-14.5-29.4-23.3c-0.3-1.8-1-3.4-2.1-4
		c-1-0.6-2-1.1-3-1.5c-11.3-13.8-17.9-31.3-30.1-44.3c0-1.9-0.5-3.7-1.4-4.6c-20-19.2-35.8-42.9-49.2-67
		C282.3,508.4,270,481,264.9,452c-4.8-27.6-3.4-57,0.8-84.5c4.3-28.2,12.4-56,24.1-82.1c23.7-52.7,61.6-98.4,109.4-131
		c26.8-18.2,56.3-32.3,87.5-41.3c33.5-9.6,68.4-13,103.1-13c17.4,0,34.8,0.4,51.8,4.6c15.6,3.9,30.4,10.4,45.5,15.7
		c12.7,4.5,28,10.9,41.7,8.1c10.3-2.1,17.2-9.1,24.8-15.7c5.2-4.4,10.7-8.3,16.7-11.5c1.6-0.8,2.3-3.3,2.4-5.9
		c18.2,4.5,36.4,11,53.6,18.5c18.5,8.1,37.2,18.7,50.2,34.6c6.3,7.8,11,17.2,11.4,27.4c0.1,1.6,0.4,4.9,1.9,6.1l0,0
		c-16.8,17.4-12.2,46.1-7.1,67.3c2.8,11.6,6.6,23,10.3,34.4c4.8,14.5,9,29.2,13.2,43.8C924,390.1,933.1,456.7,917.6,520.7z"/>
	<path class="st2" d="M400.8,353c-5-11-11.1-22.5-19.8-31c-4.3-4.1-6.3,8.4-3.3,11.3c14.8,14.4,22.5,36.8,27.6,56.3
		c5.2,20,9.5,45.3-1.1,64.3c-5.8,10.3-16.3,16.2-27.5,18.7c-2.6,0.6-2.9,8,0,7.9c26.2-0.4,37.6-24.2,39.8-47.3
		C418.9,406.2,411.9,377.7,400.8,353z"/>
	<path class="st2" d="M392.8,383.1c-1.7-16.1-13.2-34.5-27.6-42.1c-15.9-8.4-26.9,5.5-30.3,20.1c-3.3,14.1-2.2,28.8-0.4,43.1
		c1.9,14.9,4.8,31.7,12.8,44.6c3,4.8,7.3,10.5,13.2,11.4c7,1.2,13-3.8,17.5-8.5c2.4-2.5,0.7-13.1-2.8-9.5c-3.3,3.5-7.9,7.6-13.1,7.1
		c-3.9-0.3-7.5-3.2-9.4-6.5c-6.5-10.6-9.2-23.4-11.2-35.5c-1.1-6.5-1.9-13-2.4-19.5c-0.2-2.1-0.3-4.4-0.3-6.6c0-1.3-0.1-2.5-0.1-3.8
		c0-0.5,0.1-2.9,0-2.4c0.9-11.9,5.9-27.7,20.8-23c15.5,4.9,23.1,21.3,28.3,35.3C390.1,393.7,393.2,386.6,392.8,383.1z"/>
	<path class="st2" d="M434.2,295c-2.4-0.8-3.3,2.3-3.6,4.1c-1.8,9.9-6.2,19.1-14.2,25.5c-2.1,1.7-2.5,4.9-2.1,7.5
		c0.2,1.1,1.6,5.9,3.7,4.2c10.7-8.5,16.3-20.8,18.2-34.1C436.5,300.4,436.5,295.7,434.2,295z"/>
	<path class="st2" d="M404.2,300.9c-0.5-1.7-2.9-5.3-4.8-2.5c-1,1.4-1.9,2.9-2.9,4.3c-0.2,0.2-0.3,0.5-0.5,0.8
		c-0.1,0.1-0.2,0.2-0.2,0.4c-0.8,1.2-1.1,3-1.1,4.7c0,0.9,0.1,1.8,0.3,2.7c-0.9,0.6-1.2,2.7-0.9,4.2c-0.4,1.8,0,4.4,1.4,4.4
		c1.4,0,1.8-2.6,1.4-4.4c0-0.1,0-0.2,0.1-0.4c0.9,0.8,2,1.1,3-0.3c1-1.4,1.9-2.9,2.9-4.3C404.7,307.7,405.1,304,404.2,300.9z"/>
	<path class="st2" d="M442,368.5c-0.5-2.3-1.8-5.5-4-4.1c-0.2,0.1-0.3,0.2-0.5,0.3c-2.1,0-4.3,1-6.2,1.8c-1.1,0.4-1.8,2.3-2.1,3.2
		c-0.4,1.3-0.5,2.7-0.4,4c-0.2-0.2-0.4-0.3-0.7-0.3c-2.1,0-2.1,6,0,6c0.8,0,1.2-0.8,1.5-1.8c0.5,1.3,1.3,2.3,2.7,2.5
		c0.8,0.1,1.6,0.1,2.4-0.1c0.2,0.2,0.4,0.3,0.6,0.4c5,1.7,7.3-4.2,7.3-8.2C442.5,371.1,442.4,369.7,442,368.5z"/>
	<path class="st2" d="M472.9,396.6c-0.9-0.7-3.1-0.7-4.2-0.8c-0.6-0.1-1.1,0.2-1.5,0.7c-2.8-0.1-5.6-0.2-8.4-0.3
		c-4.8-0.2-9.7-0.6-14.5-0.5c-3.5,0.1-3.4,10.1,0,10c5.5-0.2,11.2,0.3,16.7,0.5c2.8,0.1,11.4,2,13-1.4
		C475.2,402.6,475.2,398.4,472.9,396.6z"/>
	<g class="st3">
		<path class="st4" d="M444.3,440c0.3-2,0.2-4.2-0.8-5.8c0,0,0,0,0,0c0-0.1-0.1-0.1-0.1-0.2c-0.2-0.5-0.5-1-0.9-1.4c0,0,0,0,0,0
			c0,0,0,0,0,0c-0.8-1.2-1.7-2.5-3.3-2.5c-0.6,0-1,0.3-1.4,0.8c-0.2,0-0.4,0.1-0.6,0.2c-1-0.4-1.7,0.2-2.3,0.9
			c-0.2-1-0.7-1.7-1.4-1.7c-1,0-1.5,1.4-1.6,2.9c-1.7,1.7-1.8,5.1-1.5,7.2c0.2,1.4,1.5,6,3.9,4.4c0.1-0.1,0.2-0.1,0.3-0.2
			c0.1,0,0.2,0,0.3,0c0.4,0,0.8,0.1,1.2,0.1c0.7,0.1,1.5,0.1,2.2-0.2c0.5-0.3,1-0.7,1.3-1.2c0.1,0.1,0.2,0.2,0.3,0.4
			c1.6,1.8,3.2,0.1,3.9-1.5c0.2-0.5,0.3-1,0.5-1.6C444.2,440.5,444.2,440.3,444.3,440z"/>
		<path class="st4" d="M442.6,432.7C442.8,433,443.1,433.4,442.6,432.7L442.6,432.7z"/>
	</g>
	<path class="st2" d="M452.4,479.8c-3.9-6.1-8.9-11.7-15.3-15.3c-4.4-2.5-6,11.1-1.9,13.5c5.3,3,9.6,7.6,12.9,12.7
		c1.6,2.5,3.7,10.4,7,10.8c1.5,0.2,2.2-1.9,2.5-2.9C460.1,492.3,455.7,484.9,452.4,479.8z"/>
	<path class="st2" d="M384.5,498.8c-1.2-2.7-3.6-2.2-4.9,0c-1.6,2.8-1.2,7,0,9.9c2.2,5.1,1.7,10.8,0,16c-1.5,4.5-4.9,8-5.7,12.7
		c-0.4,2.3,0,5.4,2,6.9l0.5,0.3c0.6,0.3,1.2,0.3,1.7,0c5.8-2.8,8-13.7,9.1-19.3C388.8,516.5,388.1,507.2,384.5,498.8z"/>
	<path class="st2" d="M406.4,506.2c-0.7-3.5-1.7-6.8-3-10c-1.1-2.7-3.8-2.3-4.9,0c-1.6,3-1.2,6.8,0,9.9c0.4,1,0.7,2,0.9,3.1
		c0,0.8,0.1,1.5,0.4,2.1c0.4,3.1,0.4,6.2,1.2,9.3c0.3,1.2,1.2,3.1,2.7,3.1c1.6,0,2.3-1.9,2.7-3.1c1-2.6,1-5.7,0.8-8.7
		C408.4,510.5,408.2,506.2,406.4,506.2z"/>
	<path class="st2" d="M566.2,169.8c-14.4-3.8-28.5-8-42.6-12.7c-4.3-1.4-4.7,9.2-1.5,10.9c13.8,7.1,29.2,10.5,44.1,14.4
		C569.8,183.2,570.7,171,566.2,169.8z"/>
	<path class="st2" d="M860.7,159.9c-14.4,5.1-30.6-3.9-41.5-12.8c-8.4-6.9-17.4-14.8-23.6-24.2c2.7,0.8,5.2,2.2,8.3,3.4
		c3.5,1.3,3.3-6.9,1.8-8.5c-4.8-4.8-10.4-7-17.2-6.3c-3.1,0.3-3.1,6.1-2.3,8.2c5.4,15.5,17.5,29.5,30.9,38.7
		c12.7,8.8,29.4,17.6,45.1,12C865.5,169.3,864.7,158.5,860.7,159.9z"/>
	<path class="st2" d="M770.3,145.6c-4.1,3.9-8.7,7.1-13.7,9.8c-4.9,2.6-10.2,4.3-15.1,6.9c-2.8,1.5-3.3,11.4,0.8,11.5
		c11.7,0.2,23.5-8.4,31.6-16C777,154.7,774.9,141.2,770.3,145.6z"/>
	<path class="st2" d="M799.4,169.8c-0.7-2.2-2.6-4.8-4.8-2.5c-2.8,2.8-5.3,5.9-8,8.8c-1.3,1.4-2.6,2.7-4,3.9c-2.1,1.8-3,3.1-4,5.8
		c-0.8,2.1-0.6,5.5,0.7,7.3c0.3,0.4,0.6,0.7,1,0.9c0,0,0,0.1,0,0.1c3.6,1.8,7.3-3.2,9.6-5.6c2.9-3,5.5-6.2,8.4-9.1
		C800.3,177.1,800.3,172.6,799.4,169.8z"/>
	<path class="st2" d="M831.3,184.8c-6.2-0.1-11.3,0.7-16.9,3.6c-0.3,0.2-0.7,0.4-1,0.5c-0.1-1-0.2-2-0.5-2.8c-0.6-2-2.7-5-4.8-2.5
		c-4.3,5.1-8.3,10.5-11.1,16.6c-1.1,2.3-1.3,5.5-0.5,7.9c0.4,1.2,1.9,4.4,3.7,3c6.8-5.2,14.8-12.6,23.7-15c-2.1,4.1-3.8,8.4-5,12.9
		c-2.1,7.9-3.5,17.5-0.2,25.3c1.7,4,4.5-0.2,4.8-2.5c0.7-6.7,0-12.8,1.9-19.4c1.9-6.4,4.8-12.5,7.8-18.5
		C834.2,192,834.9,184.8,831.3,184.8z"/>
	<path class="st2" d="M857.5,200.9c0.1-0.6,0-1.3-0.1-1.9c0.4-1.8,0-4.4-1.4-4.4c-0.4,0-0.7,0.2-0.9,0.5c-0.4-0.5-0.9-0.8-1.6-0.8
		l-0.3,0c-1.9,0-2.8,3-2.9,4.4c-0.2,2.8,0.4,5.3,0.6,8.1c0.2,2.9-0.1,6.1-0.7,8.9c-0.6,2.9-1.1,7.2,1.2,9.6c2.1,2.1,4.3-0.2,4.8-2.5
		C857.7,216.4,859.1,208,857.5,200.9z"/>
	<path class="st2" d="M845.2,653.9c-14.1,1.3-27.9,13.3-37.5,22.9c-4.8,4.8-9.7,10.4-12,17c-1.2,3.3-3.1,16.9,3.4,16.3
		c3.4-0.3,3.2-6.5,2.6-8.8c0.6-1,1.5-3,2.3-4.1c3.4-4.8,7.7-9,12.1-12.9c7.7-6.8,18.4-15.4,29.1-16.4
		C850.2,667.4,849.8,653.4,845.2,653.9z"/>
	<path class="st2" d="M837.3,627.5c-2.7-7.6-5.1-15.3-7.8-22.9c-1.3-3.5-3.8-14.4-8.7-14.7c-3.4-0.2-3.1,7-2.5,8.8
		c1.6,5.2,4.3,10.2,6.1,15.4c2.4,6.8,4.5,13.6,7,20.4c0.8,2.2,2.5,4.7,4.8,2.5C838.2,635.1,838.2,630,837.3,627.5z"/>
	<path class="st2" d="M803.6,633.1c-1.9-1.7-3.6-3.6-5.1-5.6c-1.1-1.5-2.6-4.7-4.8-4.7c-2.3,0-2.7,4-2.8,5.5
		c-0.1,6.7,4.4,12.6,9.1,16.9c2.2,2.1,4.1-0.2,4.8-2.5C805.6,640.2,805.8,635.2,803.6,633.1z"/>
	<path class="st2" d="M778.4,654.1c-4.8-2.9-15.4-8.2-20.6-4.1c-2.9,2.3-2.9,8.6,0,10.9c2.6,2.1,6.3,1.7,9.4,2.5
		c3.3,0.9,6.5,2.4,9.4,4.2C780.8,670.1,782.5,656.5,778.4,654.1z"/>
	<path class="st2" d="M761.2,691.8c-5.8-1.1-11.7-2.3-17.6-3.3c-5.4-0.9-12.2-2.8-17.7-1.5c-3.9,0.9-4.7,11-0.8,12.5
		c5.5,2,11.8,1.8,17.6,2.8c6.2,1,12.3,2.3,18.5,3.5C765.5,706.6,766.3,692.8,761.2,691.8z"/>
	<path class="st2" d="M671.3,618.6c-1.1-2-3.2-2.4-4.3,0c-7.1,15.5-12.6,31.8-17.4,48.2c-2.3,7.8-4.3,15.7-6.2,23.6
		c-1.7,7.1-3.9,14.5-3.9,21.9c0,2.2,2.5,8.1,4.5,3.7c2.7-6,3.5-12.8,5-19.2c1.8-7.7,3.8-15.3,6-22.9c4.5-15.9,9.6-31.7,16.5-46.7
		C672.4,624.7,672.6,621.1,671.3,618.6z"/>
	<path class="st2" d="M619.2,658.3c-2-1.7-3.6,0-4.2,2.2c-2.6,9.6-4.4,19.3-5.3,29.2c-0.9,9.5-2.2,20.2-0.4,29.6
		c1,5.1,5.1,5.5,5.8,0c1.1-8.6,0-17.6,0.7-26.3c0.7-8.9,2.1-17.8,4.4-26.4C620.9,664.3,621.2,660.1,619.2,658.3z"/>
	<path class="st2" d="M570.7,706.3c-3.1-3.4-6-7-8.3-11c-2-3.3-3.1-7.8-6.3-10.2c-2.5-2-3.7,4.5-3.6,5.5
		c0.6,10.4,7.8,20.2,14.7,27.7c2.1,2.3,4.1-0.4,4.8-2.5C572.8,713.1,572.7,708.5,570.7,706.3z"/>
	<path class="st2" d="M589.4,551.3c-12.9,12.7-25.7,25.4-39.2,37.4c-16.5,14.7-34.3,29.8-54.4,39.2c-5.2,2.4-11.8,5.2-18,5.2
		c30.2-42,60-84.8,87.4-128.7c1.6-2.6-0.5-11.3-3.4-6.8c-29,46.1-62,89.4-92.2,134.7c-1.2,1.8-2.4,8.1,0.6,9.1
		c16.5,5.7,35.7-7.8,48.5-16.6c19.4-13.4,37.1-29.4,53.9-45.9c6.6-6.4,13-12.9,19.1-19.8C593.5,557.1,592.4,548.3,589.4,551.3z"/>
	<path class="st2" d="M603.4,590.8c-7.7,4.4-14.5,10.6-21.4,16.1c-7.1,5.6-14.3,11-22,15.8c-3.4,2.1-2,13.5,1.6,11.3
		c15.4-9.6,30.5-21.4,43.9-33.7C607.3,598.6,606.8,588.8,603.4,590.8z"/>
	<path class="st2" d="M860.2,444.4c-17.2-18.3-36.4-35-56.6-50.1c-21.9-16.4-45.5-31.3-71-41.5c-12.2-4.8-26-9.2-39.2-8.9
		c-4,0.1-3.7,10.2,0,11c11.6,2.5,22.9,5.3,34.1,9.5c12.1,4.6,23.8,10.3,35.1,16.6c23.4,13.2,45.5,29.1,65.9,46.7
		c9.9,8.6,19.5,17.6,28.6,27.1C860.9,458.7,862.9,447.2,860.2,444.4z"/>
	<path class="st2" d="M816.1,346.9c-16.7-8.6-33.3-17.4-50.6-24.6c-16.8-7-34.6-13.2-53-13.4c-3.7,0-3.6,10,0,10.6
		c18.2,3,36,7.8,53.2,14.7c16.8,6.7,32.9,14.9,49.1,23.1C818.2,359.1,819.3,348.5,816.1,346.9z"/>
	<path class="st2" d="M800.4,483c-23.4-23.2-49-44.2-76.6-62.3c-13.8-9-28-17.2-42.4-25.3c-13-7.4-27-15.4-42.5-13
		c-2.1,0.3-2.6,3.5-2.6,5.2c0.3,18.8,7.5,36.1,15.1,53c8.3,18.6,15.8,37,15.6,57.8c0,3.6,3.6,5.8,4,1.1c1.6-20.2-4.5-39.2-12.2-57.5
		c-6.7-15.9-15.2-31.9-16.9-49.3c14.1-0.4,27.5,8.2,39.3,14.9c13.8,7.9,27.7,15.7,41.1,24.4c27.1,17.6,52.5,37.5,75.5,60.2
		C801.2,495.3,802.8,485.3,800.4,483z"/>
	<path class="st2" d="M648.6,312.7c-3.9-5.2-11.7-10.4-18.5-9.5c-5.6,0.7-9.6,5.1-11.9,10c-4.8,10.1-5.8,28.3,4.1,35.9
		c5.5,4.2,12.6,1.7,17.8-1.8c3.6-2.3,2.1-14.7-1.7-12.2c-4.3,2.8-10.2,5.3-14.3,1.4c-1-0.9-0.9-1-1.5-2.2c-0.6-1.2-0.2-0.3-0.5-1.1
		c-0.1-0.2-0.3-1.2-0.4-1.5c-0.1-0.4-0.2-0.8-0.2-1.3c0-0.4-0.1-0.7-0.1-0.8c0,0.1,0,0.1,0-0.3c-0.1-2.3-0.2-0.7,0.2-2.9
		c0.2-1.5,0.7-3.6,2-5.8c1-1.6,2.7-3.5,4.8-4.4c6.9-3.1,12.5,2.4,18.3,5.2C650.5,323.3,649.8,314.2,648.6,312.7z"/>
	<path class="st2" d="M669.2,196.2c-0.7-5-4.9-5.1-5.5,0c-1.3,10.5-1.5,21.1-3.3,31.6c-1.8,10.6-4.6,21.1-7.8,31.4
		c-0.8,2.7-0.9,7.4,1.2,9.6c2.2,2.2,4.1-0.3,4.8-2.5c3.5-11.4,6.4-23,8.5-34.7C669,220.1,670.8,207.7,669.2,196.2z"/>
	<path class="st2" d="M612.5,272.7c-1.6-5.1-3.4-10.2-5.4-15.2c-1.8-4.6-3.6-10-6.9-13.7c-3.8-4.4-4.8,6.6-4.2,8.5
		c2.7,9.4,7.6,18.1,10.5,27.5c0.7,2.3,2.5,4.6,4.8,2.5C613.5,280.2,613.3,275.3,612.5,272.7z"/>
	<path class="st2" d="M576.1,307.6c-18.3,6.2-39.8,1-57.2-5.4c-18.1-6.7-34.7-16.2-49.5-28.6c-1.7-1.4-3,2.3-3.2,3.2
		c-0.5,2.2-0.3,5,1.1,6.9c12.3,15.9,33.2,26.1,51.8,32.5c18.4,6.4,39.8,11,58.8,4.5C582.1,319.3,581.2,305.9,576.1,307.6z"/>
	<path class="st2" d="M570.8,359.6c-8.4,3-16.4,6.9-24.3,10.8c-3.7,1.8-7.4,3.6-11.2,5.3c-4.3,1.9-9.3,3.2-13.2,5.8
		c-2.5,1.8-3.7,11.7,0.8,11.8c4.3,0,8.6-2.4,12.5-4.1c4.1-1.8,8-3.9,12-5.9c8.2-4.2,16.4-8.4,25.1-11.5
		C576.3,370.3,575.4,357.9,570.8,359.6z"/>
	<path class="st2" d="M590.6,392.2c-0.5-1.6-2.6-4.8-4.4-2.3c-6.6,9.5-12.4,19.6-14.7,31.1c-0.3,1.7-0.2,5.2,1.3,6.5
		c1.3,1.1,2.8,0.8,3.5-0.9c3.6-9.1,7.5-17.6,13.1-25.7C591.2,398.5,591.5,395,590.6,392.2z"/>
	<path class="st2" d="M392.1,180.3c-1.1-1.8-2.8-2.2-3.9,0c-8.4,17.2-18.1,33.6-27.5,50.2c-4.6,8.2-9.1,16.4-13.3,24.8
		c-4.2,8.4-8.9,17.3-11,26.5c-0.5,2.2,0.9,11.4,4,6.2c4.8-8,7.8-17.4,12-25.8c4-8.2,8.4-16.3,12.8-24.3
		c9.1-16.5,18.6-32.9,26.8-49.9C393.1,185.9,393.4,182.4,392.1,180.3z"/>
	<path class="st2" d="M420.1,167.2c-0.6-1.8-2.7-5-4.6-2.4c-7.7,9.8-14.2,23-14.8,35.6c-0.1,2.6,2.6,8.8,5,4.1
		c2.3-4.4,3.2-9.6,5.1-14.2c2.1-5,4.7-9.6,8-13.9C420.8,174,421.1,170.1,420.1,167.2z"/>
</g>
<g id="Layer_3">
	<path class="st4" d="M1512.2-1649.3c-2.1,0-2.1,6,0,6C1514.3-1643.2,1514.3-1649.3,1512.2-1649.3z"/>
	<path class="st4" d="M1189.1,163.4c-6.1-27.7-31.5-47.8-55.3-60.3c-38.3-20.1-83.2-22.9-125.6-20.7c-45.8,2.4-90.8,10.9-136.3,15.8
		c-19.6,2.1-39.4,3.6-59.2,2.9c-2.6-0.1-3.8,3.9-3.6,7.7c-2.8-2.7-5.5-5.4-8.3-8c-45-42-99.5-75.5-159.2-91.5
		c-28.3-7.6-57.9-11.1-87.2-8.4c-29.8,2.7-59.1,11.6-86.2,24.1c-57.3,26.5-107.7,70-141.8,123.2c-16.6,26-29.1,54.6-35.5,84.8
		c-2.8,13-4.8,26.1-6.4,39.2c-15.3,2.7-30.4,8.7-44.2,15.6c-16.1,8.1-31.3,18.2-44,31.1c-10.3,10.5-18.9,24-18.2,39.3
		c0.8,17.6,13.9,29.7,28.7,37.5c17.3,9.1,37.2,12.9,56.5,14.6c22.6,2,45.5,1.1,68.1-1.1c44.1-4.3,87.4-13.9,130.8-22.6
		c58.6-11.8,117.3-22.5,175.6-35.8c61.2-13.9,122-30.2,181.3-50.8c16.2-5.7,32.3-11.2,48.8-16.1c17.3-5.1,34.6-10.3,51.5-16.4
		c17.6-6.3,35.1-13.5,51.2-23.2c12.6-7.6,25.2-17.2,32.3-30.4c6.6-12.2,7.8-28,1.3-40.4c-6.4-12.4-19.1-19.4-31.7-24
		c-16.1-5.8-33.4-7.5-50.5-7.7c-16-0.2-32.1,0-47.9,2.4c-3.3,0.5-6.6,1.1-9.9,1.8c-0.6-1.8-1.7-2.9-3.2-2.2c-2.1,1-4,2.3-6.1,3.2
		c-0.9,0.4-1.8,0.6-2.8,0.7c-1.4-0.4-3.1-0.3-4.2-0.3c-0.2,0-0.4,0-0.6,0.1c-0.2-0.1-0.4-0.1-0.7-0.1c-0.9-0.1-1.5,0.5-2,1.4
		c-9.1-11.7-19-22.8-29.3-33.4c41.1,1.1,82.2-6.2,122.8-11.7c43.3-5.8,87.6-11.1,131.2-5.6c36.4,4.6,74.9,18.3,100,46.3
		c6.6,7.4,12.4,16.8,13.9,26.1c0.7,4.3,0.7,7.4,0.1,11.7c-0.6,3.9-1.8,8.1-3.5,12.1c-9.2,21.6-28.2,38.6-46.3,52.8
		c-23.2,18-48.6,33-74.5,46.8c-43.5,23.2-89,41.8-134.1,61.6c-46.2,20.3-92.9,39.3-140.8,55.4c-52.4,17.6-105.7,32.4-159.6,44.9
		c-97.8,22.6-197.8,38.4-297.8,47.4c-2-3.2-3.9-6.5-5.8-9.7c-4.4-7.5-8.6-15.1-12.8-22.8c-1.3-2.3-3.2-2.2-4.5,0
		c-1.4,2.4-1.3,6.6,0,9c4.4,8.2,8.9,16.3,13.6,24.3c-41.1,3.4-82.5,4.4-123.6,3c-27.4-0.9-54.8-3-81.9-7.3
		c-23.6-3.8-47.5-9.2-69-19.9c-15.2-7.6-31.1-19.1-35.6-36.5c-2-7.8-1.2-16.2,1.2-24.5c4.4-14.8,12.8-28.5,22.1-40.7
		c24-31.5,57.7-55.1,92.7-73.2c36.5-18.9,74.4-34.5,112.9-48.6c8.8-3.2,17.6-6.3,26.5-9.5c8.3-2.9,17-4.7,25.2-7.8
		c3.7-1.4,2.9-13.5-1.6-11.8c-9.1,3.4-17.8,7.8-26.9,11c-9.3,3.3-18.7,6.5-28,9.8c-19.7,6.8-39.5,13.7-59,21.3
		c-38.6,15.3-76.4,34.5-108.6,61.1c-35.1,29-88.9,93.6-50.6,140c13.2,16,33.5,25,52.7,31.2c25.5,8.2,52.3,12.4,78.9,15.2
		c51.4,5.2,103.6,4.6,155.1,1.3c8.3-0.5,16.5-1.2,24.8-1.9c10.3,16.6,21.5,32.7,34.3,47.4c20.6,23.6,45.2,43.8,71.8,60.3
		c44.8,27.9,96.2,44.3,148.9,47.8c50.2,3.3,101.3-5.3,147.8-24.3c46.9-19.1,89.3-49.1,122.6-87.3c35.1-40.3,59.2-89.7,71-141.7
		c1.6-7,3-14,4.1-21.1c0.3-2,0.2-6.4-2.1-7.3c-2.4-1-3.4,2.5-3.7,4.2c-8.7,51.7-30.1,101-62.7,142.1c-31.1,39.1-70.6,70.6-115.8,92
		c-44.7,21.1-93.9,31.9-143.4,31.2c-51.3-0.8-102-14-147.2-38.4c-25.6-13.8-49.4-31-70.5-51c-17.4-16.5-32.1-34.9-45.2-54.7
		c15.1-1.5,30.2-3.2,45.3-5c56.1-6.6,112.1-15,167.6-25.5c110.3-21,219-50.8,323.2-92.7c28.5-11.5,56.6-24.2,84.9-36.2
		c24.7-10.5,49.3-21.3,73.5-33c27.9-13.5,55.4-28.2,81.4-45.2c22.4-14.7,44.8-31.4,61.3-52.7C1185.4,207.3,1194,185.7,1189.1,163.4z
		 M280,348.4c-0.1,7-0.2,13.9-0.2,20.9c-1.8-0.7-3.1,4.2-2.8,6c0.7,3.7,1.3,7.5,1.7,11.4c-1,2-2.3,4-2.5,6.4c-0.3,2.8,0.1,5.7,1.4,8
		c-10.4-0.5-20.7-1.6-31-3.4c-21.9-4-75.2-20.6-59.4-51.9c7.1-14,20.4-24.2,33.2-32.7c14.4-9.5,30.1-17.5,46.4-23.1
		c5.3-1.8,10.7-3.3,16.2-4.4C281.1,306.5,280.3,327.5,280,348.4z M856.6,158.9c0.6,0.5,1.3,0.8,2.2,0.5c12.3-3.5,25.5-4.8,38.2-5.7
		c16.5-1.1,32.9-0.5,49.3,2.1c20.6,3.2,61.8,12.1,55.8,41.5c-2.6,12.9-13.4,23.4-23.7,30.9c-13.5,9.8-28.8,17-44.2,23.3
		c-11.7,4.8-23.6,8.8-35.6,12.7c0.1-0.6,0.1-1.2,0.1-1.7c0.1-1.9,0-3.8-0.1-5.7c0-0.2,0-0.5,0-0.8c0.9-2.3,0.6-5.6,0.1-7.5
		c-10.2-31.8-26-61.4-45.6-88.5C854.4,159.7,855.5,159.4,856.6,158.9z M886.2,236.8c2.5,6,4.7,12.2,6.7,18.4c0,0.1,0.1,0.1,0.1,0.2
		c0,0.4,0,0.8,0,1.2c-0.1,1.9-0.2,3.8-0.1,5.7c0,0.9,0.1,2.2,0.5,3.4c-17.3,5.4-34.7,10.3-51.8,16c-25,8.3-49.7,17.4-74.9,25
		c-29.1,8.8-58.4,16.8-87.9,24.1c-57.7,14.2-116,26-174.3,37.2c-34.8,6.7-69.4,14.2-104.3,20.6c0.1-1.1,0-2.2,0-2.9
		c-1.2-11.9,0-23.8,3.2-35.3c0.6-2.2,0.9-6.5-1.1-8.2c-2-1.7-3.5,0.1-4.1,2.2c-4.1,14.6-5.2,29.6-4.1,44.7c0,0.2,0,0.4,0.1,0.6
		c-5.7,1-11.4,2-17.1,2.9c-5.1,0.8-10.2,1.7-15.3,2.4c0.6-0.5,1.1-1.4,1.2-2.8c1.2-8.8,0.8-17.8,1.3-26.7
		c0.6-10.6,1.4-21.2,2.5-31.7c2.2-21.6,5.4-43.1,10.4-64.3c0.4-1.6,0.8-5.1-0.8-6.3c-1.5-1.1-2.7-0.1-3.1,1.6
		c-5.2,21.8-8.9,43.9-11.5,66.1c-1.3,10.7-2.3,21.4-3,32.2c-0.6,9.6-1.6,19.4-0.4,29c0.2,1.7,0.9,2.7,1.6,3
		c-24.2,3.6-49,6.3-73.5,5.9c0.2-2,0-4.2-0.4-5.3c-0.5-1.6-0.7-3.3-0.8-5.1c0.6-1.6,1-3.3,1.2-5c0.1-1.3,0.2-3.4-0.3-5.2
		c0.5-1.5,0.6-3.2,0.6-4.1c0-37.3,0.5-74.9,5.7-111.9c4.5-31.6,13.3-61.4,28.6-89.5c29.7-54.2,77.3-98.9,131.5-128.1
		c26.2-14.1,54.6-24.8,84-30c27.7-4.9,56.1-4,83.7,1.2c59,11.2,113.9,41.2,159.7,79.3C825,135.1,863.8,182.6,886.2,236.8z"/>
	<path class="st4" d="M465.5,70c-40.7,14.1-75.6,41-100.8,75.8c-25.1,34.5-41.6,75-50.4,116.6c-4.9,23.2-7.7,46.8-8,70.6
		c0,2,0.6,6.8,3.4,6.8c2.8,0,3.4-4.9,3.4-6.8c0.2-80.3,29.5-166.2,92.5-218.9c18.2-15.2,38.9-26.9,61.2-34.8
		C469.8,78.3,469.1,68.7,465.5,70z"/>
	<path class="st4" d="M392.2,161.5c-40.1,49.2-58.9,109.2-64.9,171.7c-1.8,18.1-2.3,36.2-2.5,54.3c0,1.8,0.5,6.2,3.1,6.2
		c2.5,0,3.1-4.5,3.1-6.2c-0.5-59.5,7.6-120.5,35-174c8-15.6,17.6-30.2,28.5-43.9C396.4,167.4,394.8,158.3,392.2,161.5z"/>
	<path class="st4" d="M477.8,608.1c-10.1-4.3-20.3-7.6-29.9-13.1c-10.4-6-20.1-13.1-29.3-20.8c-17.6-14.6-34.2-32.2-44.9-52.7
		c-1.2-2.2-3.1-2.1-4.2,0c-1.3,2.3-1.2,6.2,0,8.5c11,21,27.7,38.9,45.8,54.1c9.7,8.2,20.1,15.5,31.2,21.7
		c9.2,5.2,20.1,11.4,30.7,12.5C480.6,618.6,480.4,609.2,477.8,608.1z"/>
	<path class="st4" d="M466.9,575c-5.9-3.1-11.8-5.6-17.2-9.5c-5.5-3.9-10.4-8.5-14.9-13.4c-9.1-10-16.1-21.7-21-34.2
		c-0.9-2.4-3.1-1.9-4.2,0c-1.4,2.5-1,5.9,0,8.4c5.3,13.5,13,26.1,22.8,36.8c8.8,9.6,20.9,19.8,33.9,22.8
		C469.7,586.7,469.6,576.4,466.9,575z"/>
	<path class="st4" d="M882.3,406.8c-17.5,50-28.8,106.9-67.7,145.6c-11.7,11.6-25.3,19.8-39.8,27.3c-2.5,1.3-2.2,9.9,1.2,8.7
		c26.5-9.3,47.9-30.7,62.7-54c15.2-23.7,24.7-50.7,33.3-77.3c4.9-15,9.5-30.2,14.7-45.1C888,408.3,884.5,400.5,882.3,406.8z"/>
	<path class="st4" d="M840.9,417.3c-2.8,0-3.2,4.8-3.3,6.6c-1.1,32.6-23.1,58-41.7,82.6c-1.8,2.3-1.1,13,2.7,9.3
		c12.4-11.7,22.8-26.8,31-41.7c8.5-15.6,14-32.5,14.6-50.3C844.2,422,843.6,417.3,840.9,417.3z"/>
	<path class="st4" d="M1139.9,158.2c-5.2-26.4-33.7-35.8-56.9-40.2c-30.6-5.8-62-4.9-93-4.7c-3.5,0-3.5,10,0,10
		c26.2-0.1,52.4-0.7,78.4,2.5c13.4,1.6,26.9,4.1,39.4,9.3c9.8,4,19.9,10,24.9,19.8c5.6,10.8,2.3,23.3-2.4,33.9
		c-7.2,16.2-18.2,30.2-30.8,42.6c-29.6,29-66.9,50.2-104.2,67.7c-40,18.8-82.2,34.3-125.5,43.5c-3.6,0.8-3.1,10.7,0,10
		c39.6-8.5,78.3-22.1,115.2-38.6c39.8-17.7,79.3-39.4,111.6-69c13.8-12.7,26.2-27.2,34.7-44C1138.1,187.9,1142.8,172.8,1139.9,158.2
		z"/>
	<path class="st4" d="M1038.3,159.2c-2.4-2.2-4.9-4.1-7.6-6c-2.9-2.1-4.3,8.1-1.4,10.2c4.7,3.3,9.1,7.1,12.5,11.8
		c1.3,1.8,2.4,3.6,3.3,5.8c0.4,0.9,0.4,0.9,0.8,2.3c0.5,1.7,0.4,1.1,0.6,2.3c0.1,0.5,0.2,1.1,0.2,1.6c0,0.1,0,0.1,0,0.2
		c0,0,0,0.1,0,0.2c0,0.5,0,1.1,0,1.6c0,0.2,0,0.4,0,0.5c0,0.1,0,0.2-0.1,0.4c-0.3,2.9-0.3,2.9-1.2,5.7c-1.1,3.6-3.8,8.5-6.5,12.2
		c-7.6,10.7-17.7,19.6-28.1,27.5c-13.5,10.3-27.9,19.3-42.7,27.6c-34.9,19.7-71.7,36.2-108.8,51.5c-35.5,14.6-71.5,27.9-107.7,40.5
		c-22.5,7.8-45.6,14.5-67.8,23c-1.2,0.5-2.5,1.1-3.7,1.5c-2.8,1-2.2,10,1.2,8.8c2.4-0.8,6-1.7,9.2-2.7c4.6-1.5,9.2-3,13.8-4.5
		c13.3-4.4,26.6-9,39.9-13.6c36.7-12.9,73.1-26.5,109.2-41.1c38.4-15.6,76.7-32.3,113-52.4c15.4-8.5,30.5-17.6,44.7-28
		c10.9-8.1,21.8-17,30-28c6.5-8.7,11.2-18.9,11.1-30C1052,176.6,1046.6,166.7,1038.3,159.2z"/>
	<path class="st4" d="M484.4,416.3c-67.3,17.5-136.3,30.8-205.9,32.6c-33.8,0.9-67-1.9-100.5-6.2c-26.2-3.4-57.2-6-72.9-30.5
		c-19.1-29.7,5.8-59,30.8-74.5c2.5-1.6,2.2-11-1.3-9.4c-25.9,11.7-45.1,38.4-42,67.5c1.5,14.1,8.7,27.9,19.3,37.3
		c10.6,9.4,23.9,14,37.6,16.7c14.4,2.9,29.1,4.3,43.6,6.1c18.4,2.3,36.8,3.5,55.4,3.6c37.7,0.2,75.3-3.3,112.5-8.9
		c41.6-6.3,82.8-15.5,123.4-26.3C487.2,423.5,486.7,415.7,484.4,416.3z"/>
	<path class="st4" d="M211.5,469.8c-26.8,0-53.7-1.5-80.1-6.2c-15.2-2.7-30.3-6.3-44.5-12.6c-11.1-4.9-22.6-11.8-29.1-22.4
		c-8.2-13.3-4-28.2,2.6-41.2c1-1.9,1.2-5.2,0-7.1c-1-1.7-2.5-2-3.5,0c-7.1,13.9-11.4,30.1-6.9,45.5c3.8,12.8,13.4,22.4,24.6,29.2
		c27.3,16.4,61.9,20.7,93.1,23.2c14.6,1.2,29.2,1.7,43.8,1.7C215,479.8,215,469.8,211.5,469.8z"/>
</g>
</svg>
