<svg width="34" height="24" viewBox="0 0 34 24" fill="none" xmlns="http://www.w3.org/2000/svg">
<path d="M30.3334 0.333313H3.66671C1.83337 0.333313 0.350041 1.83331 0.350041 3.66665L0.333374 20.3333C0.333374 22.1666 1.83337 23.6666 3.66671 23.6666H30.3334C32.1667 23.6666 33.6667 22.1666 33.6667 20.3333V3.66665C33.6667 1.83331 32.1667 0.333313 30.3334 0.333313ZM15.3334 5.33331H18.6667V8.66665H15.3334V5.33331ZM15.3334 10.3333H18.6667V13.6666H15.3334V10.3333ZM10.3334 5.33331H13.6667V8.66665H10.3334V5.33331ZM10.3334 10.3333H13.6667V13.6666H10.3334V10.3333ZM8.66671 13.6666H5.33337V10.3333H8.66671V13.6666ZM8.66671 8.66665H5.33337V5.33331H8.66671V8.66665ZM23.6667 20.3333H10.3334V17H23.6667V20.3333ZM23.6667 13.6666H20.3334V10.3333H23.6667V13.6666ZM23.6667 8.66665H20.3334V5.33331H23.6667V8.66665ZM28.6667 13.6666H25.3334V10.3333H28.6667V13.6666ZM28.6667 8.66665H25.3334V5.33331H28.6667V8.66665Z" fill="#666666"/>
</svg>
