<svg width="81" height="81" viewBox="0 0 81 81" fill="none" xmlns="http://www.w3.org/2000/svg">
<g filter="url(#filter0_d)">
<path d="M6.05457 12.785C6.05457 9.17513 8.98092 6.24878 12.5907 6.24878H63.573C67.1828 6.24878 70.1092 9.17513 70.1092 12.785V63.7672C70.1092 67.377 67.1828 70.3034 63.573 70.3034H12.5908C8.98092 70.3034 6.05457 67.377 6.05457 63.7672V12.785Z" fill="white"/>
<path d="M63.573 3.57984H12.5907C7.5069 3.57984 3.38562 7.70111 3.38562 12.785V63.7672C3.38562 68.8511 7.5069 72.9723 12.5908 72.9723H63.573C68.6568 72.9723 72.7781 68.8511 72.7781 63.7672V12.785C72.7781 7.70111 68.6568 3.57984 63.573 3.57984Z" stroke="black" stroke-width="5.33788"/>
</g>
<path d="M26.3168 20.6284C26.3168 23.8773 23.6831 26.511 20.4342 26.511C17.1854 26.511 14.5516 23.8773 14.5516 20.6284C14.5516 17.3795 17.1854 14.7458 20.4342 14.7458C23.6831 14.7458 26.3168 17.3795 26.3168 20.6284Z" fill="black"/>
<path d="M26.3168 55.9238C26.3168 59.1727 23.6831 61.8064 20.4342 61.8064C17.1854 61.8064 14.5516 59.1727 14.5516 55.9238C14.5516 52.6749 17.1854 50.0412 20.4342 50.0412C23.6831 50.0412 26.3168 52.6749 26.3168 55.9238Z" fill="black"/>
<path d="M61.6121 20.6284C61.6121 23.8773 58.9784 26.511 55.7295 26.511C52.4806 26.511 49.8469 23.8773 49.8469 20.6284C49.8469 17.3795 52.4806 14.7458 55.7295 14.7458C58.9784 14.7458 61.6121 17.3795 61.6121 20.6284Z" fill="black"/>
<path d="M61.6121 55.9238C61.6121 59.1727 58.9784 61.8064 55.7295 61.8064C52.4806 61.8064 49.8469 59.1727 49.8469 55.9238C49.8469 52.6749 52.4806 50.0412 55.7295 50.0412C58.9784 50.0412 61.6121 52.6749 61.6121 55.9238Z" fill="black"/>
<defs>
<filter id="filter0_d" x="0.716675" y="0.910889" width="80.0683" height="80.0683" filterUnits="userSpaceOnUse" color-interpolation-filters="sRGB">
<feFlood flood-opacity="0" result="BackgroundImageFix"/>
<feColorMatrix in="SourceAlpha" type="matrix" values="0 0 0 0 0 0 0 0 0 0 0 0 0 0 0 0 0 0 127 0"/>
<feOffset dx="5.33788" dy="5.33788"/>
<feColorMatrix type="matrix" values="0 0 0 0 0 0 0 0 0 0 0 0 0 0 0 0 0 0 1 0"/>
<feBlend mode="normal" in2="BackgroundImageFix" result="effect1_dropShadow"/>
<feBlend mode="normal" in="SourceGraphic" in2="effect1_dropShadow" result="shape"/>
</filter>
</defs>
</svg>
