<svg width="81" height="81" viewBox="0 0 81 81" fill="none" xmlns="http://www.w3.org/2000/svg">
<g filter="url(#filter0_d)">
<path d="M6.05457 11.9522C6.05457 8.34237 8.98092 5.41602 12.5907 5.41602L63.573 5.41602C67.1828 5.41602 70.1092 8.34237 70.1092 11.9522L70.1092 62.9344C70.1092 66.5443 67.1828 69.4706 63.573 69.4706L12.5908 69.4706C8.98092 69.4706 6.05457 66.5443 6.05457 62.9344L6.05457 11.9522Z" fill="white"/>
<path d="M63.573 2.74707L12.5907 2.74707C7.5069 2.74707 3.38562 6.86835 3.38562 11.9522L3.38562 62.9344C3.38562 68.0183 7.5069 72.1396 12.5908 72.1396L63.573 72.1396C68.6568 72.1396 72.7781 68.0183 72.7781 62.9344L72.7781 11.9522C72.7781 6.86835 68.6568 2.74707 63.573 2.74707Z" stroke="black" stroke-width="5.33788"/>
</g>
<path d="M26.3168 55.091C26.3168 58.3399 23.6831 60.9736 20.4342 60.9736C17.1854 60.9736 14.5516 58.3399 14.5516 55.091C14.5516 51.8422 17.1854 49.2085 20.4342 49.2085C23.6831 49.2085 26.3168 51.8422 26.3168 55.091Z" fill="black"/>
<path d="M61.6121 19.7956C61.6121 23.0445 58.9784 25.6782 55.7295 25.6782C52.4806 25.6782 49.8469 23.0445 49.8469 19.7956C49.8469 16.5468 52.4806 13.9131 55.7295 13.9131C58.9784 13.9131 61.6121 16.5468 61.6121 19.7956Z" fill="black"/>
<defs>
<filter id="filter0_d" x="0.716675" y="0.078125" width="80.0683" height="80.0683" filterUnits="userSpaceOnUse" color-interpolation-filters="sRGB">
<feFlood flood-opacity="0" result="BackgroundImageFix"/>
<feColorMatrix in="SourceAlpha" type="matrix" values="0 0 0 0 0 0 0 0 0 0 0 0 0 0 0 0 0 0 127 0"/>
<feOffset dx="5.33788" dy="5.33788"/>
<feColorMatrix type="matrix" values="0 0 0 0 0 0 0 0 0 0 0 0 0 0 0 0 0 0 1 0"/>
<feBlend mode="normal" in2="BackgroundImageFix" result="effect1_dropShadow"/>
<feBlend mode="normal" in="SourceGraphic" in2="effect1_dropShadow" result="shape"/>
</filter>
</defs>
</svg>
