<svg width="81" height="81" viewBox="0 0 81 81" fill="none" xmlns="http://www.w3.org/2000/svg">
<g filter="url(#filter0_d)">
<path d="M6.05457 12.2013C6.05457 8.59151 8.98092 5.66516 12.5907 5.66516L63.573 5.66516C67.1828 5.66516 70.1092 8.59151 70.1092 12.2013L70.1092 63.1836C70.1092 66.7934 67.1828 69.7198 63.573 69.7198L12.5908 69.7198C8.98092 69.7198 6.05457 66.7934 6.05457 63.1836L6.05457 12.2013Z" fill="white"/>
<path d="M63.573 2.99622L12.5907 2.99622C7.5069 2.99622 3.38562 7.1175 3.38562 12.2013L3.38562 63.1836C3.38562 68.2674 7.5069 72.3887 12.5908 72.3887L63.573 72.3887C68.6568 72.3887 72.7781 68.2674 72.7781 63.1836L72.7781 12.2013C72.7781 7.11749 68.6568 2.99622 63.573 2.99622Z" stroke="black" stroke-width="5.33788"/>
</g>
<path d="M26.3168 20.0448C26.3168 23.2936 23.6831 25.9273 20.4342 25.9273C17.1854 25.9273 14.5516 23.2936 14.5516 20.0448C14.5516 16.7959 17.1854 14.1622 20.4342 14.1622C23.6831 14.1622 26.3168 16.7959 26.3168 20.0448Z" fill="black"/>
<path d="M26.3168 37.6925C26.3168 40.9413 23.6831 43.575 20.4342 43.575C17.1854 43.575 14.5516 40.9413 14.5516 37.6925C14.5516 34.4436 17.1854 31.8099 20.4342 31.8099C23.6831 31.8099 26.3168 34.4436 26.3168 37.6925Z" fill="black"/>
<path d="M61.6121 37.6925C61.6121 40.9413 58.9784 43.575 55.7295 43.575C52.4806 43.575 49.8469 40.9413 49.8469 37.6925C49.8469 34.4436 52.4806 31.8099 55.7295 31.8099C58.9784 31.8099 61.6121 34.4436 61.6121 37.6925Z" fill="black"/>
<path d="M26.3168 55.3401C26.3168 58.589 23.6831 61.2227 20.4342 61.2227C17.1854 61.2227 14.5516 58.589 14.5516 55.3401C14.5516 52.0913 17.1854 49.4576 20.4342 49.4576C23.6831 49.4576 26.3168 52.0913 26.3168 55.3401Z" fill="black"/>
<path d="M61.6121 20.0448C61.6121 23.2936 58.9784 25.9273 55.7295 25.9273C52.4806 25.9273 49.8469 23.2936 49.8469 20.0448C49.8469 16.7959 52.4806 14.1622 55.7295 14.1622C58.9784 14.1622 61.6121 16.7959 61.6121 20.0448Z" fill="black"/>
<path d="M61.6121 55.3401C61.6121 58.589 58.9784 61.2227 55.7295 61.2227C52.4806 61.2227 49.8469 58.589 49.8469 55.3401C49.8469 52.0913 52.4806 49.4576 55.7295 49.4576C58.9784 49.4576 61.6121 52.0913 61.6121 55.3401Z" fill="black"/>
<defs>
<filter id="filter0_d" x="0.716675" y="0.327271" width="80.0683" height="80.0683" filterUnits="userSpaceOnUse" color-interpolation-filters="sRGB">
<feFlood flood-opacity="0" result="BackgroundImageFix"/>
<feColorMatrix in="SourceAlpha" type="matrix" values="0 0 0 0 0 0 0 0 0 0 0 0 0 0 0 0 0 0 127 0"/>
<feOffset dx="5.33788" dy="5.33788"/>
<feColorMatrix type="matrix" values="0 0 0 0 0 0 0 0 0 0 0 0 0 0 0 0 0 0 1 0"/>
<feBlend mode="normal" in2="BackgroundImageFix" result="effect1_dropShadow"/>
<feBlend mode="normal" in="SourceGraphic" in2="effect1_dropShadow" result="shape"/>
</filter>
</defs>
</svg>
