<svg width="79" height="78" viewBox="0 0 79 78" fill="none" xmlns="http://www.w3.org/2000/svg">
<g filter="url(#filter0_d)">
<path d="M5.87183 11.5366C5.87183 8.04978 8.69846 5.22314 12.1853 5.22314L61.4303 5.22314C64.9171 5.22314 67.7438 8.04978 67.7438 11.5366V60.7816C67.7438 64.2684 64.9171 67.0951 61.4303 67.0951H12.1853C8.69846 67.0951 5.87183 64.2684 5.87183 60.7816L5.87183 11.5366Z" fill="white"/>
<path d="M61.4303 2.64515L12.1853 2.64515C7.27467 2.64515 3.29383 6.62599 3.29383 11.5366L3.29383 60.7816C3.29383 65.6922 7.27467 69.6731 12.1853 69.6731H61.4303C66.3409 69.6731 70.3217 65.6922 70.3217 60.7816V11.5366C70.3217 6.62599 66.3409 2.64515 61.4303 2.64515Z" stroke="black" stroke-width="5.15599"/>
</g>
<path d="M25.4438 19.1128C25.4438 22.2509 22.8999 24.7949 19.7617 24.7949C16.6236 24.7949 14.0796 22.2509 14.0796 19.1128C14.0796 15.9746 16.6236 13.4307 19.7617 13.4307C22.8999 13.4307 25.4438 15.9746 25.4438 19.1128Z" fill="black"/>
<path d="M42.49 36.159C42.49 39.2972 39.946 41.8412 36.8078 41.8412C33.6697 41.8412 31.1257 39.2972 31.1257 36.159C31.1257 33.0209 33.6697 30.4769 36.8078 30.4769C39.946 30.4769 42.49 33.0209 42.49 36.159Z" fill="black"/>
<path d="M25.4438 53.2054C25.4438 56.3436 22.8999 58.8875 19.7617 58.8875C16.6236 58.8875 14.0796 56.3436 14.0796 53.2054C14.0796 50.0673 16.6236 47.5233 19.7617 47.5233C22.8999 47.5233 25.4438 50.0673 25.4438 53.2054Z" fill="black"/>
<path d="M59.5363 19.1128C59.5363 22.2509 56.9924 24.7949 53.8542 24.7949C50.7161 24.7949 48.1721 22.2509 48.1721 19.1128C48.1721 15.9746 50.7161 13.4307 53.8542 13.4307C56.9924 13.4307 59.5363 15.9746 59.5363 19.1128Z" fill="black"/>
<path d="M59.5363 53.2054C59.5363 56.3436 56.9924 58.8875 53.8542 58.8875C50.7161 58.8875 48.1721 56.3436 48.1721 53.2054C48.1721 50.0673 50.7161 47.5233 53.8542 47.5233C56.9924 47.5233 59.5363 50.0673 59.5363 53.2054Z" fill="black"/>
<defs>
<filter id="filter0_d" x="0.71582" y="0.0671387" width="77.3399" height="77.3399" filterUnits="userSpaceOnUse" color-interpolation-filters="sRGB">
<feFlood flood-opacity="0" result="BackgroundImageFix"/>
<feColorMatrix in="SourceAlpha" type="matrix" values="0 0 0 0 0 0 0 0 0 0 0 0 0 0 0 0 0 0 127 0"/>
<feOffset dx="5.15599" dy="5.15599"/>
<feColorMatrix type="matrix" values="0 0 0 0 0 0 0 0 0 0 0 0 0 0 0 0 0 0 1 0"/>
<feBlend mode="normal" in2="BackgroundImageFix" result="effect1_dropShadow"/>
<feBlend mode="normal" in="SourceGraphic" in2="effect1_dropShadow" result="shape"/>
</filter>
</defs>
</svg>
