<svg width="81" height="81" viewBox="0 0 81 81" fill="none" xmlns="http://www.w3.org/2000/svg">
<g filter="url(#filter0_d)">
<path d="M6.05457 12.3686C6.05457 8.75875 8.98092 5.8324 12.5907 5.8324L63.573 5.8324C67.1828 5.8324 70.1092 8.75875 70.1092 12.3686V63.3508C70.1092 66.9607 67.1828 69.887 63.573 69.887H12.5908C8.98092 69.887 6.05457 66.9607 6.05457 63.3508L6.05457 12.3686Z" fill="white"/>
<path d="M63.573 3.16346L12.5907 3.16346C7.5069 3.16346 3.38562 7.28473 3.38562 12.3686L3.38562 63.3508C3.38562 68.4347 7.5069 72.5559 12.5908 72.5559H63.573C68.6568 72.5559 72.7781 68.4347 72.7781 63.3508V12.3686C72.7781 7.28473 68.6568 3.16346 63.573 3.16346Z" stroke="black" stroke-width="5.33788"/>
</g>
<path d="M43.9645 37.8597C43.9645 41.1086 41.3308 43.7423 38.0819 43.7423C34.833 43.7423 32.1993 41.1086 32.1993 37.8597C32.1993 34.6108 34.833 31.9771 38.0819 31.9771C41.3308 31.9771 43.9645 34.6108 43.9645 37.8597Z" fill="black"/>
<path d="M26.3168 55.5074C26.3168 58.7563 23.6831 61.39 20.4342 61.39C17.1854 61.39 14.5516 58.7563 14.5516 55.5074C14.5516 52.2585 17.1854 49.6248 20.4342 49.6248C23.6831 49.6248 26.3168 52.2585 26.3168 55.5074Z" fill="black"/>
<path d="M61.6121 20.212C61.6121 23.4609 58.9784 26.0946 55.7295 26.0946C52.4806 26.0946 49.8469 23.4609 49.8469 20.212C49.8469 16.9632 52.4806 14.3294 55.7295 14.3294C58.9784 14.3294 61.6121 16.9632 61.6121 20.212Z" fill="black"/>
<defs>
<filter id="filter0_d" x="0.716675" y="0.494507" width="80.0683" height="80.0683" filterUnits="userSpaceOnUse" color-interpolation-filters="sRGB">
<feFlood flood-opacity="0" result="BackgroundImageFix"/>
<feColorMatrix in="SourceAlpha" type="matrix" values="0 0 0 0 0 0 0 0 0 0 0 0 0 0 0 0 0 0 127 0"/>
<feOffset dx="5.33788" dy="5.33788"/>
<feColorMatrix type="matrix" values="0 0 0 0 0 0 0 0 0 0 0 0 0 0 0 0 0 0 1 0"/>
<feBlend mode="normal" in2="BackgroundImageFix" result="effect1_dropShadow"/>
<feBlend mode="normal" in="SourceGraphic" in2="effect1_dropShadow" result="shape"/>
</filter>
</defs>
</svg>
