<?xml version="1.0" encoding="utf-8"?>
<!-- Generator: Adobe Illustrator 25.0.1, SVG Export Plug-In . SVG Version: 6.00 Build 0)  -->
<svg version="1.1" id="filled" xmlns="http://www.w3.org/2000/svg" xmlns:xlink="http://www.w3.org/1999/xlink" x="0px" y="0px"
	 viewBox="0 0 329 317.8" style="enable-background:new 0 0 329 317.8;" xml:space="preserve">
<style type="text/css">
	.st0{fill:#181919;}
</style>
<path class="st0" d="M302.5,1.2c0,0-99,45-120,66c-21,20-30,38-30,58c0,6-0.2,73.5,3,79c3.4,5.8,7.9,14,28.5,23s-7.5,13.4-31.5-12.3
	c0,0-140,70.3-150,77.3s17,39,75,18s215-106,224-111c17-9,27-36,27-62c0-3-1.4-11.1-16-3c-14.9,8.2-50,29-74,36s-25-8-25-19
	s-2.1-29,17-48c19.5-19.5,82.1-35,83-84C313.5,0.2,307.5-0.8,302.5,1.2z"/>
</svg>
