<svg id="filled" xmlns="http://www.w3.org/2000/svg" viewBox="0 0 329.04 317.76"><defs><style>.cls-1{stroke:#000;stroke-miterlimit:10;}</style></defs><path class="cls-1" d="M368.5,95.5s-99,45-120,66c-21,20-30,38-30,58,0,6-.25,73.48,3,79,3.45,5.84,7.94,14,28.5,22.95s-7.5,13.41-31.5-12.27c0,0-140,70.32-150,77.32s17,39,75,18,215-106,224-111c17-9,27-36,27-62,0-3-1.44-11.06-16-3-14.87,8.23-50,29-74,36s-25-8-25-19-2.09-29,17-48c19.55-19.46,82.11-35,83-84C379.5,94.5,373.5,93.5,368.5,95.5Z" transform="translate(-65.96 -94.28)"/></svg>