<svg xmlns="http://www.w3.org/2000/svg" viewBox="0 0 604.02 168.73"><defs><style>.cls-1{fill:#f4f4f2;}.cls-2{fill:#4a688b;}.cls-3{fill:#92dbff;}</style></defs><g id="Layer_2" data-name="Layer 2"><g id="Layer_4" data-name="Layer 4"><path class="cls-1" d="M325.06,126.59c-12.05,18.68-31.71,28.52-57,28.52-40.31,0-65.63-22.62-65.63-58.75,0-36.38,26.3-62.92,62.68-62.92,34.9,0,62.93,26.79,60,68.57H240c.24,13.28,7.37,29,28.51,29,9.83,0,16.22-3.2,27-13.52ZM288.43,81.37c-2-14.75-11.06-23.6-24.58-23.6S242.22,65.39,240,81.37Z"/><path class="cls-1" d="M461.47,83.33H435.9c-5.9-12.78-15.73-19.41-28.51-19.41-16.71,0-27.28,11.79-27.28,30,0,20.16,9.83,32.45,26.3,32.45,11.55,0,22.86-7.13,29.49-19.17L464.66,120c-10.32,23.1-29.49,35.15-56.29,35.15-40.06,0-66.36-24.09-66.36-61,0-34.41,24.82-59.73,58.74-59.73,12.78,0,23.11,3.44,35.15,11.31V36.14h25.57Z"/><path class="cls-1" d="M542.81,155.11c-34.41,0-60.95-22.37-60.95-61,0-40.8,29.49-60.71,60.95-60.71,33.92,0,61.21,21.63,61.21,60.71C604,130.77,579.19,155.11,542.81,155.11Zm0-92.92C528.07,62.19,520,74,520,94.89c0,19.66,8.6,31.46,22.85,31.46,14.75,0,23.11-11.8,23.11-32.2C565.92,74,557.56,62.19,542.81,62.19Z"/></g><g id="Layer_7" data-name="Layer 7"><path class="cls-1" d="M5.22,125l64.42,41.91a11.54,11.54,0,0,0,15.92-3.37l57.81-88.86.42-.67a15.19,15.19,0,0,0,2.79-12.4L136,8.68A10.81,10.81,0,0,0,123,.26L70.34,12a15.12,15.12,0,0,0-10.07,7.35c-.21.28-.42.57-.61.87L1.85,109.06A11.53,11.53,0,0,0,5.22,125ZM113.08,17.59A7,7,0,1,1,119,25.47,7,7,0,0,1,113.08,17.59Z"/><path class="cls-2" d="M96.4,123.64s-67.55,4.84-47.15-77.32C49.25,46.32,128.77,59.36,96.4,123.64Z"/><path class="cls-3" d="M96.4,123.65c32.85-64.79-47.15-77.32-47.15-77.32a2.58,2.58,0,0,1,.55.36l.54.52C85.38,85.12,96.4,123.65,96.4,123.65Z"/></g></g></svg>