<svg id="Layer_1" data-name="Layer 1" xmlns="http://www.w3.org/2000/svg" viewBox="0 0 602.8 165.94"><defs><style>.cls-1{fill:#9ac5f7;}.cls-2{fill:#33a361;}.cls-3{fill:#7fef7f;}</style></defs><g id="Layer_2" data-name="Layer 2"><g id="Layer_4" data-name="Layer 4"><path class="cls-1" d="M325.06,126.59c-12.05,18.68-31.71,28.52-57,28.52-40.31,0-65.63-22.62-65.63-58.75,0-36.38,26.3-62.92,62.68-62.92,34.9,0,62.93,26.79,60,68.57H240c.24,13.28,7.37,29,28.51,29,9.83,0,16.22-3.2,27-13.52ZM288.43,81.37c-2-14.75-11.06-23.6-24.58-23.6S242.22,65.39,240,81.37Z" transform="translate(-1.22 -2.04)"/><path class="cls-1" d="M461.47,83.33H435.9c-5.9-12.78-15.73-19.41-28.51-19.41-16.71,0-27.28,11.79-27.28,30,0,20.16,9.83,32.45,26.3,32.45,11.55,0,22.86-7.13,29.49-19.17L464.66,120c-10.32,23.1-29.49,35.15-56.29,35.15-40.06,0-66.36-24.09-66.36-61,0-34.41,24.82-59.73,58.74-59.73,12.78,0,23.11,3.44,35.15,11.31V36.14h25.57Z" transform="translate(-1.22 -2.04)"/><path class="cls-1" d="M542.81,155.11c-34.41,0-60.95-22.37-60.95-61,0-40.8,29.49-60.71,60.95-60.71C576.73,33.4,604,55,604,94.11,604,130.77,579.19,155.11,542.81,155.11Zm0-92.92C528.07,62.19,520,74,520,94.89c0,19.66,8.6,31.46,22.85,31.46,14.75,0,23.11-11.8,23.11-32.2C565.92,74,557.56,62.19,542.81,62.19Z" transform="translate(-1.22 -2.04)"/></g><g id="Layer_2-2" data-name="Layer 2"><g id="Layer_7" data-name="Layer 7"><path class="cls-1" d="M85.36,162.86l56.87-87.39c.19-.3.37-.59.53-.89a14.92,14.92,0,0,0,2.6-12l-10.47-52a10.62,10.62,0,0,0-12.51-8.32l-.21,0L70.35,13.79a14.94,14.94,0,0,0-10,7.46l-.44.64L3,109.27a11.34,11.34,0,0,0,3.31,15.65l63.38,41.24A11.34,11.34,0,0,0,85.36,162.86ZM113.83,24.23a6.85,6.85,0,1,1,9.45,2.17h0A6.86,6.86,0,0,1,113.83,24.23Z" transform="translate(-1.22 -2.04)"/><path class="cls-2" d="M95.36,123.37s-66.5,3.71-45.17-76.75C50.19,46.62,128.18,60.67,95.36,123.37Z" transform="translate(-1.22 -2.04)"/><path class="cls-3" d="M95.35,123.38c33.3-63.18-45.16-76.76-45.16-76.76a2.54,2.54,0,0,1,.54.36l.53.52C85.13,85.33,95.35,123.38,95.35,123.38Z" transform="translate(-1.22 -2.04)"/></g></g></g></svg>