<svg id="Layer_1" data-name="Layer 1" xmlns="http://www.w3.org/2000/svg" viewBox="0 0 209.32 241"><defs><style>.cls-1{fill:#9ac5f7;}.cls-2{fill:#33a361;}.cls-3{fill:#7fef7f;}</style></defs><g id="Layer_2" data-name="Layer 2"><g id="Layer_7" data-name="Layer 7"><path class="cls-1" d="M124.74,254l82-127.09c.27-.43.54-.86.77-1.3a21.63,21.63,0,0,0,3.7-17.4L195.78,32.81a15.41,15.41,0,0,0-18.19-12l-.31.07-75.11,17A21.68,21.68,0,0,0,87.66,48.69l-.64,1L5,176.71a16.44,16.44,0,0,0,4.9,22.68l92.16,59.49A16.45,16.45,0,0,0,124.74,254ZM165.3,52.74A9.94,9.94,0,1,1,179,55.83h0A10,10,0,0,1,165.3,52.74Z" transform="translate(-2.41 -20.48)"/><path class="cls-2" d="M139,196.66S42.58,202.4,73.1,85.56C73.1,85.56,186.31,105.53,139,196.66Z" transform="translate(-2.41 -20.48)"/><path class="cls-3" d="M139,196.67c48-91.83-65.93-111.1-65.93-111.1a3.18,3.18,0,0,1,.79.52l.77.75C124,141.54,139,196.67,139,196.67Z" transform="translate(-2.41 -20.48)"/></g></g></svg>